<?xml version="1.0" encoding="UTF-8" standalone="no"?>
<!-- Created with Inkscape (http://www.inkscape.org/) -->

<svg
   version="1.1"
   id="svg9"
   width="791"
   height="791"
   viewBox="0 0 791 791"
   sodipodi:docname="quizl.svg"
   inkscape:version="1.1 (c68e22c387, 2021-05-23)"
   xmlns:inkscape="http://www.inkscape.org/namespaces/inkscape"
   xmlns:sodipodi="http://sodipodi.sourceforge.net/DTD/sodipodi-0.dtd"
   xmlns="http://www.w3.org/2000/svg"
   xmlns:svg="http://www.w3.org/2000/svg">
  <defs
     id="defs13" />
  <sodipodi:namedview
     id="namedview11"
     pagecolor="#ffffff"
     bordercolor="#666666"
     borderopacity="1.0"
     inkscape:pageshadow="2"
     inkscape:pageopacity="0.0"
     inkscape:pagecheckerboard="0"
     showgrid="false"
     inkscape:zoom="0.11263648"
     inkscape:cx="443.90592"
     inkscape:cy="1185.2288"
     inkscape:window-width="1366"
     inkscape:window-height="745"
     inkscape:window-x="-8"
     inkscape:window-y="-8"
     inkscape:window-maximized="1"
     inkscape:current-layer="g15" />
  <g
     inkscape:groupmode="layer"
     inkscape:label="Image"
     id="g15">
    <g
       id="g117"
       transform="translate(-8.8781185,0.84745636)">
      <path
         style="fill:#fdfdfd"
         d="M 0,395.5 V 0 H 395.5 791 V 395.5 791 H 395.5 0 Z m 412,189.43974 c 13.95351,-3.13602 27.86048,-11.04683 39.57788,-22.51338 C 458.36799,555.7816 467,545.55245 467,544.15075 c 0,-0.36831 -0.95861,-1.26832 -2.13024,-2.00002 -1.95716,-1.22226 -2.58685,-0.88743 -7.75,4.12107 -24.21737,23.49196 -54.9181,26.37909 -98.65507,9.27762 -6.28994,-2.45941 -25.73016,-11.41639 -43.20047,-19.90439 C 282.38284,519.66952 270.7993,514.68317 258,510.99459 c -4.125,-1.18877 -8.175,-2.3998 -9,-2.69118 -0.83029,-0.29324 1.17885,-1.30587 4.5,-2.26805 19.2252,-5.5698 37.17904,-21.43168 47.47047,-41.93927 8.67669,-17.28993 13.21981,-39.09022 13.25324,-63.59609 0.0322,-23.57353 -3.8226,-40.95078 -12.52929,-56.4822 -5.08966,-9.07918 -16.93495,-21.40009 -24.88838,-25.88771 -23.3914,-13.1983 -55.03179,-13.18126 -77.64064,0.0418 -8.44317,4.93809 -22.79002,19.87322 -28.10468,29.25709 -11.49064,20.28848 -17.01003,43.31114 -17.03838,71.071 -0.0466,45.62468 17.5064,76.50027 49.80924,87.61408 2.98527,1.02709 12.83464,3.23057 21.88748,4.89663 24.90974,4.58433 34.41481,8.64294 66.27232,28.29791 54.35429,33.53469 66.51823,39.67747 88.50862,44.69677 8.92177,2.03639 24.53583,2.49954 31.5,0.93435 z M 226.13495,498.97046 c -2.95078,-0.42902 -8.63508,-2.39617 -12.63179,-4.37145 -10.351,-5.11574 -18.01763,-13.56684 -24.39021,-26.88586 -8.0098,-16.7409 -11.09729,-32.56104 -11.10705,-56.91193 -0.0217,-54.17295 17.57789,-86.52102 49.58203,-91.13168 27.13524,-3.90923 50.04775,15.31931 58.78163,49.33046 7.99552,31.13588 5.26262,73.91864 -6.29762,98.58756 -8.41005,17.94656 -20.62315,28.4277 -36.5056,31.32865 -6.563,1.19874 -9.49678,1.20787 -17.43139,0.0543 z m 156.61698,8.92155 c 5.72491,-2.45398 15.23694,-11.60208 20.86282,-20.06462 6.26109,-9.41802 12.41298,-23.03855 17.4274,-38.5849 2.35188,-7.29164 4.44908,-13.08459 4.66044,-12.87323 0.21136,0.21135 -0.0668,4.15224 -0.61815,8.75751 -2.95473,24.68051 -2.17908,39.36669 2.65059,50.18651 6.15114,13.78027 19.75274,18.18818 34.82761,11.28667 6.31605,-2.89158 12.43736,-7.3303 12.43736,-9.01864 0,-2.89614 -2.15896,-3.32284 -6.32366,-1.24981 -5.32227,2.64922 -11.89253,2.63956 -15.48325,-0.0228 -6.36826,-4.72172 -9.94782,-16.32374 -10.8817,-35.26956 -0.5431,-11.01805 0.96167,-50.81981 2.54635,-67.35173 0.41189,-4.2969 0.49989,-7.94973 0.19557,-8.11739 -0.40368,-0.22241 -16.82111,1.84168 -18.80331,2.36405 -0.1375,0.0362 -0.25,1.69563 -0.25,3.68754 0,5.41921 -2.8531,23.79587 -5.10458,32.87834 -5.18448,20.91421 -14.76713,43.7984 -22.59359,53.95544 -7.05438,9.15505 -15.29498,13.76703 -21.71818,12.15491 -3.91811,-0.98338 -8.44539,-5.45179 -9.54882,-9.42463 -1.51006,-5.43691 -1.25698,-15.16201 1.01971,-39.18572 2.51705,-26.55989 2.96998,-47.25788 1.12951,-51.61631 -1.87876,-4.44915 -4.97262,-5.7785 -11.88597,-5.1071 -5.64266,0.54798 -19.46466,4.15598 -28.04808,7.32147 -3.72169,1.37252 -4.25,1.94449 -4.25,4.60122 0,2.78539 0.22523,2.98577 2.75,2.44656 16.22722,-3.46565 20.36202,-3.11159 22.27008,1.90697 1.50562,3.96008 1.15078,19.60636 -1.03067,45.44719 -2.57484,30.50076 -2.56062,38.36749 0.0835,46.21656 1.14013,3.38441 2.96792,7.29123 4.06175,8.68182 6.66251,8.47 18.3312,10.83139 29.61723,5.99363 z m 128.60373,0.53106 c 6.67691,-1.71361 23.76531,-9.65898 25.64494,-11.9238 0.64055,-0.77181 0.89509,-2.25256 0.56565,-3.29055 -0.58518,-1.84373 -0.73123,-1.84181 -6.33262,0.0831 -7.76265,2.66759 -16.3727,2.79731 -19.14497,0.28845 -4.03301,-3.64982 -4.59264,-8.42647 -4.52008,-38.58024 0.0629,-26.13716 1.02567,-41.16897 4.05008,-63.2345 l 0.60078,-4.38318 -3.97574,-1.19116 C 506.05704,385.53602 503.03818,385 501.53511,385 c -3.61732,0 -9.32884,2.7726 -9.98372,4.8465 -2.27053,7.19034 -3.43319,90.14297 -1.4503,103.47498 2.28262,15.34731 7.063,18.74381 21.25457,15.10159 z m 119.3558,-0.52544 c 8.29769,-4.01684 12.92841,-13.98662 14.00285,-30.14763 l 0.58173,-8.75 h -3.07712 c -2.9454,0 -3.1266,0.24615 -4.23288,5.75 -1.40809,7.00537 -4.88067,12.61495 -9.23177,14.91292 -4.31262,2.27765 -14.02271,2.07083 -28.19716,-0.60056 -12.71163,-2.39571 -25.26892,-2.65534 -31.90037,-0.65957 l -4.66111,1.40279 3.25218,-3.78805 C 569.03652,483.93411 577.25,474.63939 585.5,465.36261 615.18907,431.97847 644,394.88894 644,390.05307 c 0,-0.86459 -0.93382,-2.15516 -2.07515,-2.86793 -1.73859,-1.08576 -2.91445,-1.00611 -7.25,0.4911 -6.86351,2.3702 -24.39071,2.34128 -47.67485,-0.0787 -20.56397,-2.13723 -24.21342,-1.61945 -30.10394,4.27107 -4.32298,4.32297 -5.60631,8.20483 -7.05881,21.35176 -1.26624,11.461 -0.91166,12.99016 2.89539,12.48667 2.04893,-0.27098 2.84646,-0.99439 3.07203,-2.78654 0.68462,-5.43913 3.42649,-11.76793 6.28587,-14.50906 2.91317,-2.7927 3.39144,-2.90481 11.72327,-2.74793 4.7774,0.09 17.51891,0.31496 28.31446,0.5 l 19.62826,0.33645 -8.12826,8.88046 C 586.00651,445.55836 540,501.41585 540,504.77412 c 0,0.41946 1.2215,1.50381 2.71443,2.40967 2.53617,1.53885 2.88096,1.53099 5.25,-0.11969 9.84997,-6.86315 23.16959,-7.20611 48.03557,-1.23684 19.63554,4.71366 28.19638,5.22427 34.71146,2.07037 z M 509.47133,348.57643 c 4.02919,-1.68351 8.22496,-7.82492 9.10474,-13.32675 1.73438,-10.84623 -8.9181,-18.56897 -18.51441,-13.42241 -9.97197,5.34802 -9.32109,23.32077 0.97297,26.86629 4.49467,1.54807 4.44981,1.54869 8.4367,-0.11713 z"
         id="path121" />
      <path
         style="fill:#01012f"
         d="m 380.5,584.00539 c -21.99039,-5.0193 -34.15433,-11.16208 -88.50862,-44.69677 -31.85751,-19.65497 -41.36258,-23.71358 -66.27232,-28.29791 -23.24909,-4.2787 -29.8562,-6.75249 -41.58698,-15.57067 -6.71953,-5.05116 -15.23391,-15.58275 -19.51049,-24.13287 -7.16922,-14.33333 -10.62098,-31.53056 -10.59925,-52.80717 0.0283,-27.75986 5.54774,-50.78252 17.03838,-71.071 5.31466,-9.38387 19.66151,-24.319 28.10468,-29.25709 22.60885,-13.22308 54.24924,-13.24012 77.64064,-0.0418 7.95343,4.48762 19.79872,16.80853 24.88838,25.88771 8.70669,15.53142 12.56144,32.90867 12.52929,56.4822 -0.0334,24.50587 -4.57655,46.30616 -13.25324,63.59609 -10.29143,20.50759 -28.24527,36.36947 -47.47047,41.93927 -3.32115,0.96218 -5.33029,1.97481 -4.5,2.26805 0.825,0.29138 4.875,1.50241 9,2.69118 12.7993,3.68858 24.38284,8.67493 57.26422,24.65044 17.47031,8.488 36.91053,17.44498 43.20047,19.90439 43.73697,17.10147 74.4377,14.21434 98.65507,-9.27762 5.16315,-5.0085 5.79284,-5.34333 7.75,-4.12107 1.17163,0.7317 2.13024,1.63171 2.13024,2.00002 0,1.4017 -8.63201,11.63085 -15.42212,18.27561 -11.7174,11.46655 -25.62437,19.37736 -39.57788,22.51338 -6.96417,1.56519 -22.57823,1.10204 -31.5,-0.93435 z M 243.56634,498.91621 c 15.88245,-2.90095 28.09555,-13.38209 36.5056,-31.32865 6.51605,-13.90489 9.63348,-28.92968 10.59995,-51.08756 1.98627,-45.53836 -11.58056,-80.58122 -35.77371,-92.40279 -18.66283,-9.11927 -39.93847,-5.45663 -54.48568,9.37982 -14.78137,15.07525 -22.421,41.43926 -22.4066,77.32419 0.01,24.35089 3.09725,40.17103 11.10705,56.91193 11.51196,24.06059 31.34295,35.42421 54.45339,31.20306 z m 122.48476,10.959 c -11.97821,-2.25846 -19.05413,-13.80889 -19.04831,-31.09366 0.002,-4.55485 0.89551,-18.85655 1.98662,-31.78155 2.18145,-25.84083 2.53629,-41.48711 1.03067,-45.44719 -1.90806,-5.01856 -6.04286,-5.37262 -22.27008,-1.90697 -2.52477,0.53921 -2.75,0.33883 -2.75,-2.44656 0,-2.65673 0.52831,-3.2287 4.25,-4.60122 8.58342,-3.16549 22.40542,-6.77349 28.04808,-7.32147 6.91335,-0.6714 10.00721,0.65795 11.88597,5.1071 1.84047,4.35843 1.38754,25.05642 -1.12951,51.61631 -3.18396,33.5972 -2.71469,40.58384 3.05179,45.43602 5.76376,4.84988 12.07515,4.59515 19.11108,-0.77134 14.39711,-10.98104 29.05032,-45.57519 34.22187,-80.79302 0.8584,-5.84558 1.56072,-12.25808 1.56072,-14.25 0,-1.99191 0.1125,-3.65131 0.25,-3.68754 1.9822,-0.52237 18.39963,-2.58646 18.80331,-2.36405 0.30432,0.16766 0.21632,3.82049 -0.19557,8.11739 -1.58468,16.53192 -3.08945,56.33368 -2.54635,67.35173 0.93388,18.94582 4.51344,30.54784 10.8817,35.26956 3.59072,2.66231 10.16098,2.67197 15.48325,0.0228 4.1647,-2.07303 6.32366,-1.64633 6.32366,1.24981 0,1.68834 -6.12131,6.12706 -12.43736,9.01864 -15.07487,6.90151 -28.67647,2.4936 -34.82761,-11.28667 -4.82967,-10.81982 -5.60532,-25.506 -2.65059,-50.18651 0.55134,-4.60527 0.82951,-8.54616 0.61815,-8.75751 -0.21136,-0.21136 -2.30856,5.58159 -4.66044,12.87323 -7.74171,24.00188 -16.66527,40.32439 -27.9083,51.04843 -8.86631,8.45702 -17.27638,11.43326 -27.08275,9.58429 z m 131.95642,-0.7682 c -3.54582,-0.98676 -6.61753,-7.11957 -7.90643,-15.78553 -1.98289,-13.33201 -0.82023,-96.28464 1.4503,-103.47498 0.65488,-2.0739 6.3664,-4.8465 9.98372,-4.8465 1.50307,0 4.52193,0.53602 6.70859,1.19116 l 3.97574,1.19116 -0.60078,4.38318 c -3.02441,22.06553 -3.98718,37.09734 -4.05008,63.2345 -0.0726,30.15377 0.48707,34.93042 4.52008,38.58024 2.77227,2.50886 11.38232,2.37914 19.14497,-0.28845 5.60139,-1.92488 5.74744,-1.9268 6.33262,-0.0831 0.89245,2.81188 -0.81367,4.24676 -10.89826,9.16564 -13.1604,6.41913 -22.17642,8.53709 -28.66047,6.73265 z M 596,505.82726 c -24.86598,-5.96927 -38.1856,-5.62631 -48.03557,1.23684 -2.36904,1.65068 -2.71383,1.65854 -5.25,0.11969 C 541.2215,506.27793 540,505.19358 540,504.77412 c 0,-3.35827 46.00651,-59.21576 73.62827,-89.39366 l 8.12826,-8.88046 -19.62826,-0.33645 c -10.79555,-0.18504 -23.53706,-0.41004 -28.31446,-0.5 -8.33183,-0.15688 -8.8101,-0.0448 -11.72327,2.74793 -2.85938,2.74113 -5.60125,9.06993 -6.28587,14.50906 -0.22557,1.79215 -1.0231,2.51556 -3.07203,2.78654 -3.80705,0.50349 -4.16163,-1.02567 -2.89539,-12.48667 1.4525,-13.14693 2.73583,-17.02879 7.05881,-21.35176 5.89052,-5.89052 9.53997,-6.4083 30.10394,-4.27107 23.28414,2.41994 40.81134,2.44886 47.67485,0.0787 4.33555,-1.49721 5.51141,-1.57686 7.25,-0.4911 1.14133,0.71277 2.07515,2.00334 2.07515,2.86793 0,4.83587 -28.81093,41.9254 -58.5,75.30954 -8.25,9.27678 -16.46348,18.5715 -18.25219,20.65492 l -3.25218,3.78805 4.66111,-1.40279 c 6.63145,-1.99577 19.18874,-1.73614 31.90037,0.65957 14.17445,2.67139 23.88454,2.87821 28.19716,0.60056 4.3511,-2.29797 7.82368,-7.90755 9.23177,-14.91292 1.10628,-5.50385 1.28748,-5.75 4.23288,-5.75 h 3.07712 l -0.58173,8.75 c -1.07444,16.16101 -5.70516,26.13079 -14.00285,30.14763 -6.51508,3.1539 -15.07592,2.64329 -34.71146,-2.07037 z m -94.96537,-157.1337 c -10.29406,-3.54552 -10.94494,-21.51827 -0.97297,-26.86629 9.59631,-5.14656 20.24879,2.57618 18.51441,13.42241 -0.87978,5.50183 -5.07555,11.64324 -9.10474,13.32675 -3.98689,1.66582 -3.94203,1.6652 -8.4367,0.11713 z"
         id="path119" />
    </g>
  </g>
</svg>
