<?xml version="1.0" encoding="UTF-8" standalone="no"?>
<!-- Created with Inkscape (http://www.inkscape.org/) -->

<svg
   version="1.1"
   id="svg9"
   width="791"
   height="791"
   viewBox="0 0 791 791"
   sodipodi:docname="QuizD.svg"
   inkscape:version="1.1 (c68e22c387, 2021-05-23)"
   xmlns:inkscape="http://www.inkscape.org/namespaces/inkscape"
   xmlns:sodipodi="http://sodipodi.sourceforge.net/DTD/sodipodi-0.dtd"
   xmlns="http://www.w3.org/2000/svg"
   xmlns:svg="http://www.w3.org/2000/svg">
  <defs
     id="defs13" />
  <sodipodi:namedview
     id="namedview11"
     pagecolor="#ffffff"
     bordercolor="#666666"
     borderopacity="1.0"
     inkscape:pageshadow="2"
     inkscape:pageopacity="0.0"
     inkscape:pagecheckerboard="0"
     showgrid="false"
     inkscape:zoom="0.5"
     inkscape:cx="498"
     inkscape:cy="449"
     inkscape:window-width="1366"
     inkscape:window-height="745"
     inkscape:window-x="-8"
     inkscape:window-y="-8"
     inkscape:window-maximized="1"
     inkscape:current-layer="g15" />
  <g
     inkscape:groupmode="layer"
     inkscape:label="Image"
     id="g15">
    <g
       id="g439"
       transform="translate(1.4729981,1.53259)">
      <path
         style="fill:#f5bd13"
         d="m 382,584.44495 c -20.46177,-4.39473 -41.62539,-14.70561 -79.98813,-38.97009 -38.22815,-24.17935 -50.46753,-29.71132 -76.22285,-34.45127 -23.313,-4.29047 -29.92028,-6.76094 -41.63592,-15.56775 -11.9148,-8.95652 -21.92338,-25.43556 -26.77452,-44.08404 -4.53603,-17.43715 -4.43643,-48.76782 0.21958,-69.06991 3.12999,-13.64801 9.00219,-27.90581 16.09759,-39.08517 4.77131,-7.51758 18.34603,-20.86198 25.46965,-25.03751 15.28129,-8.95716 33.98647,-12.03411 52.95361,-8.7107 14.5597,2.55114 25.58377,7.75138 35.34553,16.67307 15.58654,14.24523 24.24374,34.54875 26.47406,62.08904 2.1805,26.92497 -2.72421,55.50048 -13.04327,75.99189 -10.26618,20.3864 -28.77762,36.76604 -47.20005,41.76443 -2.64259,0.71699 -4.44259,1.63843 -4,2.04763 0.4426,0.4092 3.50472,1.50898 6.80472,2.44396 12.87431,3.64761 26.24111,9.34416 57.5,24.50485 47.5538,23.06379 63.69232,28.99907 84.09541,30.92789 23.50447,2.22201 41.97913,-3.73782 58.01275,-18.71462 6.14242,-5.73755 6.93411,-6.1872 8.81999,-5.00945 1.13952,0.71164 2.07185,1.59524 2.07185,1.96355 0,1.4017 -8.63201,11.63085 -15.42212,18.27561 -12.13968,11.87979 -26.61162,19.94775 -40.46437,22.55849 -7.40786,1.3961 -21.29889,1.1385 -29.11351,-0.5399 z M 243.29479,498.9533 c 25.88223,-4.78459 42.22858,-29.36912 46.65223,-70.16389 3.19202,-29.43674 -0.76904,-58.64421 -10.67951,-78.747 -10.90874,-22.12775 -30.76303,-33.64271 -52.26799,-30.31405 -24.20668,3.74684 -40.17294,23.69355 -46.64328,58.27164 -2.27431,12.15406 -2.57571,49.54548 -0.49172,61 7.69638,42.30249 32.43326,65.68341 63.43027,59.9533 z m 122.75631,10.88964 c -12.24941,-2.22074 -19.08062,-13.73539 -19.02081,-32.06139 0.0167,-5.10485 0.68378,-16.03155 1.48249,-24.28155 2.27037,-23.45081 2.90686,-49.47305 1.28372,-52.48339 -2.12739,-3.94557 -5.56086,-4.57553 -14.90477,-2.73468 -4.53031,0.89252 -8.60926,1.39265 -9.06433,1.1114 -0.45507,-0.28125 -0.8274,-1.57259 -0.8274,-2.86964 0,-1.86191 0.89452,-2.68817 4.25,-3.92563 7.64854,-2.82071 21.91583,-6.60008 27.30804,-7.23383 12.22927,-1.43731 14.02709,1.32888 13.73671,21.13577 -0.11288,7.7 -1.12156,23.675 -2.24149,35.5 -3.12856,33.03338 -2.7517,39.574 2.60221,45.16227 7.47204,7.79913 19.6732,3.0794 29.51858,-11.41857 11.92162,-17.55536 23.25056,-52.9452 25.43026,-79.44017 0.45858,-5.57418 1.11814,-8.36678 2.06159,-8.72882 0.76301,-0.29279 5.04759,-0.83761 9.52131,-1.2107 l 8.13403,-0.67835 -0.6456,9.90717 c -4.6191,70.88394 -2.80448,92.32118 8.52596,100.72227 3.51014,2.60263 10.22209,2.52972 15.51104,-0.1685 4.02207,-2.05191 6.28736,-1.53499 6.28736,1.43471 0,1.68834 -6.12131,6.12706 -12.43736,9.01864 -15.14976,6.93579 -28.65077,2.50825 -34.91487,-11.45003 -4.72782,-10.53499 -5.54623,-26.82398 -2.56588,-51.06962 0.50163,-4.08083 0.76003,-7.57171 0.57423,-7.75751 -0.1858,-0.1858 -2.26209,5.62806 -4.61397,12.9197 -13.87122,43.00541 -33.39107,64.51639 -54.99105,60.60045 z m 131.24422,-0.85734 c -3.11975,-1.25604 -5.88756,-7.29658 -7.18336,-15.67715 -1.38255,-8.94162 -1.44011,-58.22329 -0.0978,-83.7494 0.90777,-17.2629 1.18692,-19.14416 3.15087,-21.23469 2.84506,-3.02843 7.61369,-3.81683 13.92633,-2.30245 l 5.14538,1.23436 -0.60942,4.4462 c -2.94301,21.47165 -3.97003,37.28909 -4.04493,62.29753 -0.0908,30.31246 0.697,36.50139 5.08569,39.95354 3.07009,2.41493 10.38425,2.10005 18.64273,-0.80257 5.5688,-1.95728 5.61588,-1.95738 6.23281,-0.0136 0.9165,2.8876 -0.73639,4.29145 -10.87561,9.23697 -13.43447,6.55281 -23.75054,8.87477 -29.37267,6.61124 z M 599,506.4743 c -20.97594,-4.90498 -30.29366,-5.85676 -39.18559,-4.00274 -3.93986,0.82148 -8.82869,2.59565 -10.86407,3.9426 -3.78623,2.50561 -4.51245,2.41568 -8.88471,-1.10027 -2.01483,-1.62022 40.98945,-54.21843 73.023,-89.31389 l 8.67117,-9.5 h -15.6299 c -8.59644,0 -20.59532,-0.39926 -26.66417,-0.88724 -9.39975,-0.75581 -11.49753,-0.64767 -14.1617,0.73002 -4.61117,2.38453 -7.12382,6.16432 -8.48786,12.76835 -1.23864,5.99691 -2.80628,7.59737 -6.17529,6.30456 -1.87269,-0.71862 -2.05162,-4.27466 -0.72537,-14.41569 1.41146,-10.79254 2.99952,-15.15032 6.96684,-19.11765 5.93797,-5.93797 9.50154,-6.43215 30.61765,-4.24594 23.25805,2.40797 40.19078,2.4373 47.23756,0.0818 4.30775,-1.43992 5.59482,-1.5276 7.25,-0.49393 1.10684,0.69124 2.01244,1.96418 2.01244,2.82877 0,5.01846 -31.34798,45.15681 -61.57886,78.84635 -7.10663,7.91968 -14.02629,15.75889 -15.37703,17.42047 l -2.4559,3.02106 2.4559,-0.76761 c 6.8271,-2.13387 20.77181,-1.79399 36.51988,0.89012 16.11409,2.74649 20.2194,2.73416 25.65572,-0.0771 3.90177,-2.01768 7.40594,-7.86829 8.76633,-14.63638 1.10628,-5.50385 1.28748,-5.75 4.23288,-5.75 h 3.07712 l -0.58173,8.75 c -1.47601,22.20118 -9.28666,32.34507 -24.78003,32.18247 C 616.37663,509.89514 607.01736,508.34906 599,506.4743 Z M 500.26969,348.50089 c -9.65338,-4.14722 -9.789,-21.53529 -0.20803,-26.67362 9.62062,-5.1596 19.893,2.36022 18.40661,13.47441 -0.57817,4.32313 -4.51949,11.12018 -7.31594,12.6168 -3.32297,1.77839 -7.56975,2.00567 -10.88264,0.58241 z"
         id="path443" />
      <path
         style="fill:#000030"
         d="M 0,395.5 V 0 H 395.5 791 V 395.5 791 H 395.5 0 Z m 411.11351,189.48485 c 13.85275,-2.61074 28.32469,-10.6787 40.46437,-22.55849 C 458.36799,555.7816 467,545.55245 467,544.15075 c 0,-0.36831 -0.93233,-1.25191 -2.07185,-1.96355 -1.88588,-1.17775 -2.67757,-0.7281 -8.81999,5.00945 -24.18918,22.5948 -55.36678,25.18014 -98.10816,8.13542 -6.325,-2.52233 -26.125,-11.67924 -44,-20.34869 -31.25889,-15.16069 -44.62569,-20.85724 -57.5,-24.50485 -3.3,-0.93498 -6.36212,-2.03476 -6.80472,-2.44396 -0.44259,-0.4092 1.35741,-1.33064 4,-2.04763 18.42243,-4.99839 36.93387,-21.37803 47.20005,-41.76443 10.31906,-20.49141 15.22377,-49.06692 13.04327,-75.99189 -2.23032,-27.54029 -10.88752,-47.84381 -26.47406,-62.08904 -9.76176,-8.92169 -20.78583,-14.12193 -35.34553,-16.67307 -18.96714,-3.32341 -37.67232,-0.24646 -52.95361,8.7107 -7.12362,4.17553 -20.69834,17.51993 -25.46965,25.03751 -7.0954,11.17936 -12.9676,25.43716 -16.09759,39.08517 -4.65601,20.30209 -4.75561,51.63276 -0.21958,69.06991 4.85114,18.64848 14.85972,35.12752 26.77452,44.08404 11.71564,8.80681 18.32292,11.27728 41.63592,15.56775 25.75532,4.73995 37.9947,10.27192 76.22285,34.45127 38.36274,24.26448 59.52636,34.57536 79.98813,38.97009 7.81462,1.6784 21.70565,1.936 29.11351,0.5399 z M 225.55302,498.9371 c -18.29759,-3.0613 -34.23179,-19.98619 -41.83598,-44.4371 -4.36223,-14.02653 -5.21976,-21.47929 -5.17776,-45 0.0536,-30.03141 3.05349,-45.41077 12.28757,-62.99449 16.02476,-30.51469 53.462,-36.5994 77.22566,-12.55157 17.66628,17.87755 26.22134,54.93354 21.89451,94.83547 -5.4117,49.90657 -29.37147,76.00717 -64.394,70.14769 z M 383.5,507.4045 c 14.0761,-6.57163 27.71955,-27.70869 37.54215,-58.16201 2.35188,-7.29164 4.42817,-13.1055 4.61397,-12.9197 0.1858,0.1858 -0.0726,3.67668 -0.57423,7.75751 -2.98035,24.24564 -2.16194,40.53463 2.56588,51.06962 6.2641,13.95828 19.76511,18.38582 34.91487,11.45003 6.31605,-2.89158 12.43736,-7.3303 12.43736,-9.01864 0,-2.9697 -2.26529,-3.48662 -6.28736,-1.43471 -5.28895,2.69822 -12.0009,2.77113 -15.51104,0.1685 -11.33044,-8.40109 -13.14506,-29.83833 -8.52596,-100.72227 l 0.6456,-9.90717 -8.13403,0.67835 c -4.47372,0.37309 -8.7583,0.91791 -9.52131,1.2107 -0.94345,0.36204 -1.60301,3.15464 -2.06159,8.72882 -2.1797,26.49497 -13.50864,61.88481 -25.43026,79.44017 -9.84538,14.49797 -22.04654,19.2177 -29.51858,11.41857 C 365.30156,481.574 364.9247,475.03338 368.05326,442 c 1.11993,-11.825 2.12861,-27.8 2.24149,-35.5 0.29038,-19.80689 -1.50744,-22.57308 -13.73671,-21.13577 -5.39221,0.63375 -19.6595,4.41312 -27.30804,7.23383 -3.35548,1.23746 -4.25,2.06372 -4.25,3.92563 0,1.29705 0.37233,2.58839 0.8274,2.86964 0.45507,0.28125 4.53402,-0.21888 9.06433,-1.1114 9.34391,-1.84085 12.77738,-1.21089 14.90477,2.73468 1.62314,3.01034 0.98665,29.03258 -1.28372,52.48339 -3.2495,33.56447 -1.04466,45.47984 9.85007,53.23155 6.33208,4.50534 16.3537,4.77364 25.13715,0.67295 z m 127.85566,1.01857 c 6.67691,-1.71361 23.76531,-9.65898 25.64494,-11.9238 0.64055,-0.77181 0.8849,-2.28466 0.543,-3.36188 -0.61693,-1.9438 -0.66401,-1.9437 -6.23281,0.0136 -8.25848,2.90262 -15.57264,3.2175 -18.64273,0.80257 -4.38869,-3.45215 -5.17648,-9.64108 -5.08569,-39.95354 0.0749,-25.00844 1.10192,-40.82588 4.04493,-62.29753 l 0.60942,-4.4462 -5.14538,-1.23436 c -6.31264,-1.51438 -11.08127,-0.72598 -13.92633,2.30245 -1.96395,2.09053 -2.2431,3.97179 -3.15087,21.23469 -0.54781,10.41752 -1.00009,31.90475 -1.00508,47.7494 -0.0158,50.35418 2.53907,56.19816 22.3466,51.11462 z m 119.3558,-0.52544 c 8.29769,-4.01684 12.92841,-13.98662 14.00285,-30.14763 l 0.58173,-8.75 h -3.07712 c -2.9454,0 -3.1266,0.24615 -4.23288,5.75 -1.36039,6.76809 -4.86456,12.6187 -8.76633,14.63638 -5.43632,2.81124 -9.54163,2.82357 -25.65572,0.0771 -15.74807,-2.68411 -29.69278,-3.02399 -36.51988,-0.89012 l -2.4559,0.76761 2.4559,-3.02106 c 1.35074,-1.66158 8.2704,-9.50079 15.37703,-17.42047 C 612.65202,435.20988 644,395.07153 644,390.05307 c 0,-0.86459 -0.9056,-2.13753 -2.01244,-2.82877 -1.65518,-1.03367 -2.94225,-0.94599 -7.25,0.49393 -7.04678,2.35548 -23.97951,2.32615 -47.23756,-0.0818 -21.11611,-2.18621 -24.67968,-1.69203 -30.61765,4.24594 -3.96732,3.96733 -5.55538,8.32511 -6.96684,19.11765 -1.32625,10.14103 -1.14732,13.69707 0.72537,14.41569 3.36901,1.29281 4.93665,-0.30765 6.17529,-6.30456 1.36404,-6.60403 3.87669,-10.38382 8.48786,-12.76835 2.66417,-1.37769 4.76195,-1.48583 14.1617,-0.73002 6.06885,0.48798 18.06773,0.88724 26.66417,0.88724 h 15.6299 l -8.67117,9.5 c -32.03355,35.09546 -75.03783,87.69367 -73.023,89.31389 4.37226,3.51595 5.09848,3.60588 8.88471,1.10027 2.03538,-1.34695 6.92421,-3.12112 10.86407,-3.9426 8.89193,-1.85402 18.20965,-0.90224 39.18559,4.00274 17.33431,4.05342 25.51952,4.4208 31.71146,1.42333 z M 511.15233,347.91848 c 2.79645,-1.49662 6.73777,-8.29367 7.31594,-12.6168 0.7106,-5.31341 -1.35272,-10.31855 -5.36615,-13.01705 -9.16027,-6.15907 -20.10745,1.03058 -20.09838,13.19977 0.008,10.94956 9.1804,17.23371 18.14859,12.43408 z"
         id="path441" />
    </g>
    <path
       style="fill:#f5bd13;fill-opacity:1;stroke-width:0.00813724"
       d="m 234.89539,501.33199 c -1.22349,-0.0219 -2.37732,-0.0856 -3.54546,-0.19586 -0.28062,-0.0265 -0.69703,-0.0697 -0.74659,-0.0775 l -0.0305,-0.005 v -0.044 c 0,-0.0405 10e-4,-0.044 0.0187,-0.044 0.0103,0 0.10641,0.009 0.2136,0.0205 1.17053,0.12306 2.44075,0.21321 3.66544,0.26013 1.14818,0.044 2.60563,0.0486 3.67803,0.0116 0.31786,-0.011 0.38052,-0.007 0.11392,0.007 -0.87273,0.0467 -1.48177,0.0645 -2.38421,0.0698 -0.33342,0.002 -0.77573,5.2e-4 -0.98291,-0.003 z"
       id="path2255" />
    <path
       style="fill:#f5bd13;fill-opacity:1;stroke-width:0.00813724"
       d="m 230.47517,501.04585 c -1.58299,-0.191 -2.7186,-0.37639 -4.14938,-0.67741 -0.0243,-0.005 -0.0458,-0.0141 -0.0478,-0.0201 -0.002,-0.007 0.001,-0.009 0.0116,-0.006 0.0657,0.0205 1.13707,0.20029 1.68017,0.28195 0.83816,0.12604 1.90738,0.26557 2.50334,0.32668 l 0.0997,0.0102 v 0.0471 c 0,0.0537 0.009,0.0504 -0.0977,0.0376 z"
       id="path2294" />
    <path
       style="fill:#f5bd13;fill-opacity:1;stroke-width:0.00390625"
       d="m 381.59573,510.26855 c 3e-5,-0.0105 0.002,-0.0115 0.1084,-0.0493 1.27236,-0.45223 2.58576,-1.0234 3.82694,-1.66424 0.0815,-0.0421 0.14878,-0.0765 0.14942,-0.0765 6.3e-4,0 10e-4,0.0256 10e-4,0.0568 v 0.0568 l -0.14746,0.0725 c -0.7866,0.38652 -1.63607,0.76122 -2.39081,1.0546 -0.43705,0.16989 -0.78088,0.29685 -1.159,0.42799 -0.10799,0.0375 -0.38565,0.13209 -0.38754,0.13209 -6.2e-4,0 -10e-4,-0.005 -10e-4,-0.0108 z"
       id="path2333" />
    <path
       style="fill:#f5bd13;fill-opacity:1;stroke-width:0.00390625"
       d="m 385.68168,508.53395 5e-5,-0.0574 0.0739,-0.0384 c 0.57191,-0.2974 1.31843,-0.7202 1.93102,-1.09365 l 0.11239,-0.0685 -10e-4,0.071 -0.001,0.071 -0.14648,0.0879 c -0.61691,0.37038 -1.23558,0.71291 -1.86816,1.03433 l -0.10059,0.0511 z"
       id="path2372" />
    <path
       style="fill:#f5bd13;fill-opacity:1;stroke-width:0.00390625"
       d="m 387.79883,507.35619 c 0,-0.0332 10e-4,-0.0654 0.002,-0.0716 0.002,-0.009 0.008,-0.0151 0.0303,-0.0285 0.95643,-0.5878 1.94377,-1.25885 2.8807,-1.9579 0.0801,-0.0598 0.14647,-0.10868 0.14746,-0.10868 9.9e-4,0 0.002,0.0303 0.002,0.0674 l -3e-5,0.0674 -0.20407,0.15283 c -0.69062,0.51723 -1.32334,0.96005 -2.00486,1.40313 -0.25862,0.16814 -0.65115,0.41482 -0.85058,0.53454 -0.002,9.7e-4 -0.003,-0.0254 -0.003,-0.0585 z"
       id="path2411" />
    <path
       style="fill:#f5bd13;fill-opacity:1;stroke-width:0.00390625"
       d="m 390.86133,505.25486 v -0.0684 l 0.0537,-0.0403 c 0.62009,-0.46462 1.42203,-1.1091 2.08228,-1.67345 0.078,-0.0667 0.14774,-0.12613 0.15493,-0.13209 l 0.0131,-0.0108 0.0607,0.001 0.0607,10e-4 -0.0534,0.0469 c -0.76784,0.67421 -1.54132,1.31038 -2.2606,1.85929 -0.0559,0.0426 -0.10376,0.0792 -0.10645,0.0813 -0.004,0.003 -0.005,-0.0105 -0.005,-0.0646 z"
       id="path2450" />
    <path
       style="fill:#f5bd13;fill-opacity:1;stroke-width:0.00390625"
       d="m 393.17247,503.32714 c -9.9e-4,-0.002 0.0116,-0.0144 0.0281,-0.0283 0.1027,-0.0873 0.41083,-0.35769 0.61392,-0.53878 0.38337,-0.34185 0.84783,-0.77032 1.20391,-1.11063 l 0.0889,-0.085 h 0.0372 c 0.0204,0 0.0372,7.4e-4 0.0372,0.002 0,0.002 -0.29421,0.28735 -0.44141,0.42845 -0.4259,0.40824 -0.9375,0.88005 -1.36914,1.26264 l -0.082,0.0727 -0.0574,9e-5 c -0.0316,5e-5 -0.0582,-10e-4 -0.0592,-0.003 z"
       id="path2489" />
    <path
       style="fill:#f5bd13;fill-opacity:1;stroke-width:0.00390625"
       d="m 395.1543,501.52039 c 0.0247,-0.0242 0.12666,-0.12302 0.22656,-0.21964 0.50902,-0.49232 1.31796,-1.31347 1.75398,-1.78047 0.0157,-0.0168 0.0192,-0.0188 0.0318,-0.0176 l 0.0142,10e-4 -0.12327,0.13281 c -0.53177,0.57296 -1.04925,1.10905 -1.59406,1.65137 l -0.27763,0.27636 -0.0383,-4e-5 -0.0383,-4e-5 z"
       id="path2528" />
    <path
       style="fill:#f5bd13;fill-opacity:1;stroke-width:0.00390625"
       d="m 397.17254,499.48103 c 0.0104,-0.0115 0.0795,-0.0858 0.15369,-0.16504 0.28419,-0.30376 0.58342,-0.63084 0.87446,-0.95583 0.0265,-0.0296 0.0491,-0.053 0.0502,-0.052 0.004,0.004 -0.49609,0.56651 -0.8308,0.93402 -0.25486,0.27983 -0.23477,0.2591 -0.25145,0.25945 l -0.015,3.1e-4 z"
       id="path2567" />
    <path
       style="fill:#f5bd13;fill-opacity:1;stroke-width:0.0110485"
       d="m 354.10819,502.67688 c -1.43083,-1.98911 -2.56094,-4.27805 -3.37526,-6.83629 -0.23152,-0.72733 -0.37469,-1.22592 -0.56473,-1.96664 -0.072,-0.28084 -0.20006,-0.81695 -0.20006,-0.83786 0,-0.007 0.0149,-0.0129 0.0331,-0.0129 0.019,0 0.0331,0.006 0.0331,0.0137 0,0.0239 0.16324,0.62857 0.27793,1.0296 0.94054,3.28869 2.21972,6.11956 3.87078,8.56617 l 0.15844,0.23478 h -0.0482 -0.0481 z"
       id="path2606" />
    <path
       style="fill:#f5bd13;fill-opacity:1;stroke-width:0.015625"
       d="m 496.39414,508.63668 c -1.27399,-1.4042 -2.21521,-3.20692 -3.01796,-5.78029 -0.2355,-0.75497 -0.68161,-2.46294 -0.62975,-2.41108 0.004,0.004 0.0375,0.1168 0.0739,0.25 0.10787,0.39544 0.35069,1.19435 0.51049,1.67958 0.87792,2.6658 1.93728,4.80417 3.09532,6.24808 0.0887,0.1106 0.15853,0.20383 0.15518,0.20719 -0.003,0.003 -0.0876,-0.0837 -0.18716,-0.19348 z"
       id="path2645" />
    <path
       style="fill:#f5bd13;fill-opacity:1;stroke-width:0.015625"
       d="m 502.92187,511.42027 c -0.043,-0.003 -0.19062,-0.0131 -0.32812,-0.0221 -0.55854,-0.0366 -1.07203,-0.10454 -1.59465,-0.21095 -0.33271,-0.0677 -0.71633,-0.16271 -0.7046,-0.17444 0.003,-0.004 0.1461,0.0219 0.31688,0.0565 0.66638,0.13497 1.26925,0.21238 2.09956,0.2696 0.37981,0.0262 1.85324,0.0262 2.28125,-3e-5 0.47893,-0.0293 0.88659,-0.0623 1.30468,-0.10554 0.20625,-0.0213 0.42071,-0.0418 0.47657,-0.0456 0.2931,-0.0195 -0.61967,0.0962 -1.16407,0.14748 -0.72742,0.0686 -1.00337,0.0817 -1.8125,0.0863 -0.43828,0.002 -0.83203,0.002 -0.875,-0.001 z"
       id="path2684" />
    <path
       style="fill:#f5bd13;fill-opacity:1;stroke-width:0.00390625"
       d="m 512.43197,510.05119 c 8.9e-4,-8.5e-4 0.0421,-0.0124 0.0915,-0.0257 0.48857,-0.13132 1.05969,-0.29415 1.57761,-0.44978 0.0857,-0.0257 0.15663,-0.0459 0.15771,-0.0448 0.008,0.008 -0.019,0.0177 -0.16948,0.0639 -0.53614,0.16451 -0.91403,0.27053 -1.45764,0.40893 -0.17967,0.0457 -0.20391,0.0515 -0.19967,0.0475 z"
       id="path2723" />
    <path
       style="fill:#f5bd13;fill-opacity:1;stroke-width:0.00390625"
       d="m 510.00977,509.49609 v -1.12695 h 2.04298 2.04298 l -9.9e-4,0.60235 -9.9e-4,0.60235 -0.16211,0.0483 c -0.64453,0.1919 -1.33491,0.38363 -1.97852,0.54948 -0.31319,0.0807 -0.86239,0.21133 -1.38085,0.32844 -0.22031,0.0498 -0.55306,0.12302 -0.55878,0.12302 -0.002,0 -0.004,-0.41538 -0.004,-1.12696 z"
       id="path2762" />
    <path
       style="fill:#f5bd13;fill-opacity:1;stroke-width:0.00390625"
       d=""
       id="path2801" />
    <path
       style="fill:#f5bd13;fill-opacity:1;stroke-width:0.00390625"
       d="m 505.19336,511.37451 c 0.26889,-0.0237 0.43168,-0.0388 0.54687,-0.0505 0.4567,-0.0465 1.06351,-0.12183 1.08594,-0.13483 0.0101,-0.006 -0.056,-0.004 -0.14062,0.004 -0.044,0.004 -0.0854,0.007 -0.0918,0.007 -0.0118,-3.6e-4 5.2e-4,-0.002 0.24023,-0.0308 0.46051,-0.0555 0.97061,-0.12902 1.45002,-0.20905 0.13415,-0.0224 0.17438,-0.0281 0.16131,-0.0231 -0.002,8.3e-4 -0.0777,0.0147 -0.16797,0.0307 -0.91469,0.16289 -1.70867,0.27665 -2.48242,0.35566 -0.24462,0.025 -0.61553,0.0573 -0.64648,0.0563 -0.009,-2.7e-4 0.0116,-0.003 0.0449,-0.006 z"
       id="path2879" />
    <path
       style="fill:#f5bd13;fill-opacity:1;stroke-width:0.00390625"
       d="m 502.28516,511.38214 c -0.006,-8e-4 -0.0574,-0.006 -0.11329,-0.0113 -0.16304,-0.0158 -0.42015,-0.0468 -0.54882,-0.0662 -0.26448,-0.0399 -0.42891,-0.0686 -0.64063,-0.11178 -0.26366,-0.0537 -0.55521,-0.12589 -0.80259,-0.1986 -0.15462,-0.0454 -0.3977,-0.12413 -0.38569,-0.12484 0.003,-1.6e-4 0.0432,0.0101 0.0898,0.0229 0.16743,0.0457 0.41601,0.10687 0.55057,0.1354 0.0555,0.0118 0.0319,0.0107 -0.0388,-0.002 -0.0372,-0.007 -0.0764,-0.0131 -0.0872,-0.0145 -0.0175,-0.002 -0.0189,-0.002 -0.0137,0.003 0.0225,0.023 0.50654,0.13814 0.86328,0.20542 0.34185,0.0645 0.68235,0.11297 1.02442,0.14591 0.0725,0.007 0.13183,0.014 0.13183,0.0156 0,0.003 -0.007,0.003 -0.0293,3e-4 z"
       id="path2918" />
    <path
       style="fill:#f5bd13;fill-opacity:1;stroke-width:0.00390625"
       d="m 503.19922,511.43495 c -0.28919,-0.008 -0.25834,-0.01 0.21094,-0.0106 0.64635,-9e-4 1.05548,-0.007 1.3164,-0.0201 0.0408,-0.002 0.0988,-0.005 0.12891,-0.006 0.0515,-0.002 0.0504,-0.002 -0.0195,0.003 -0.1793,0.0129 -0.49202,0.0267 -0.75196,0.0333 -0.17962,0.005 -0.72026,0.004 -0.88476,-5.6e-4 z"
       id="path2957" />
    <path
       style="fill:#f5bd13;fill-opacity:1;stroke-width:0.00390625"
       d=""
       id="path2996" />
    <path
       style="fill:#f5bd13;fill-opacity:1;stroke-width:0.00390625"
       d="m 502.70312,511.40409 c -0.57978,-0.0403 -0.88924,-0.0754 -1.36425,-0.15481 l -0.04,-0.007 v -0.0251 -0.0251 l 0.0117,0.002 c 0.0465,0.009 0.34504,0.0482 0.5279,0.0688 0.30123,0.034 0.76017,0.0727 0.97209,0.082 0.13266,0.006 0.40894,0.0118 0.51562,0.0111 l 0.0918,-5.8e-4 -0.10938,-0.003 c -0.68032,-0.0184 -1.32889,-0.0715 -1.92187,-0.15734 l -0.0859,-0.0124 -9.9e-4,-0.65715 -9.8e-4,-0.65715 h 2.04299 2.04299 l -9.9e-4,0.71777 -9.9e-4,0.71778 -0.0723,0.005 c -0.34094,0.022 -0.58326,0.0328 -1.02539,0.0457 -0.0236,6.9e-4 0.0488,5.9e-4 0.16095,-2.2e-4 0.21047,-0.002 0.39343,-0.006 0.52264,-0.0131 0.0941,-0.005 0.35934,-0.0224 0.3916,-0.0255 l 0.0244,-0.002 v 0.0195 0.0195 l -0.0186,0.002 c -0.031,0.004 -0.24586,0.0213 -0.36621,0.0295 -0.39412,0.0271 -0.77085,0.0354 -1.58203,0.0348 l -0.5,-3.8e-4 -0.21485,-0.0149 z m 0.93633,-0.0457 c -0.02,-7.2e-4 -0.0516,-7.1e-4 -0.0703,0 -0.0187,7.2e-4 -0.002,0.001 0.0363,0.001 0.0387,0 0.054,-5.8e-4 0.034,-0.001 z m 0.10363,5.5e-4 c -0.001,-0.001 -0.005,-0.001 -0.007,-3.1e-4 -0.003,10e-4 -0.002,0.002 0.002,0.002 0.004,1.7e-4 0.006,-7.5e-4 0.005,-0.002 z m 0.18954,-4e-4 c -0.005,-9.3e-4 -0.0127,-9.3e-4 -0.0176,0 -0.005,9.3e-4 -8.8e-4,0.002 0.009,0.002 0.01,0 0.0136,-7.6e-4 0.009,-0.002 z m 0.15647,-1.6e-4 c -0.024,-6.8e-4 -0.0645,-6.8e-4 -0.0899,0 -0.0254,6.8e-4 -0.006,10e-4 0.0437,10e-4 0.0494,1e-5 0.0702,-5.5e-4 0.0461,-10e-4 z"
       id="path3035" />
    <path
       style="fill:#f5bd13;fill-opacity:1;stroke-width:0.00390625"
       d=""
       id="path3074" />
    <path
       style="fill:#f5bd13;fill-opacity:1;stroke-width:0.00390625"
       d="m 496.70053,508.96562 c -0.64091,-0.62972 -1.20602,-1.37586 -1.72462,-2.27708 -0.0331,-0.0574 -0.0612,-0.10754 -0.0625,-0.11133 -0.006,-0.0179 0.0101,0.008 0.0642,0.10248 0.39616,0.68951 0.84483,1.31722 1.34018,1.87495 0.13147,0.14803 0.25227,0.27544 0.26114,0.27544 0.008,0 -4.7e-4,-0.013 -0.0411,-0.0669 -0.0179,-0.0238 -0.0319,-0.0439 -0.031,-0.0448 8.8e-4,-8.8e-4 0.0181,0.0182 0.0382,0.0423 0.0698,0.0838 0.18566,0.21756 0.2589,0.29884 0.004,0.005 0.006,0.009 0.004,0.009 -0.002,-10e-5 -0.0505,-0.0462 -0.10777,-0.10254 z"
       id="path3113" />
    <path
       style="fill:#f5bd13;fill-opacity:1;stroke-width:0.00390625"
       d=""
       id="path3152" />
    <path
       style="fill:#f5bd13;fill-opacity:1;stroke-width:0.00390625"
       d=""
       id="path3191" />
    <path
       style="fill:#f5bd13;fill-opacity:1;stroke-width:0.00390625"
       d="m 497.78711,509.86581 c -0.2845,-0.19712 -0.54173,-0.3997 -0.78665,-0.61952 -0.0384,-0.0345 -0.0749,-0.0668 -0.081,-0.0718 -0.0274,-0.0222 -0.22104,-0.23859 -0.33971,-0.37961 -0.48838,-0.58039 -0.97949,-1.31374 -1.42701,-2.13086 l -0.0492,-0.0898 1.39714,-9.8e-4 c 0.76843,-5.4e-4 1.39774,-3.9e-4 1.39846,3.3e-4 7.2e-4,7.2e-4 8.7e-4,0.75912 3.3e-4,1.68534 l -9.8e-4,1.68404 z"
       id="path3230" />
    <path
       style="fill:#f5bd13;fill-opacity:1;stroke-width:0.00390625"
       d=""
       id="path3269" />
    <path
       style="fill:#f5bd13;fill-opacity:1;stroke-width:0.00390625"
       d=""
       id="path3308" />
    <path
       style="fill:#f5bd13;fill-opacity:1;stroke-width:0.00390625"
       d="m 497.82422,509.89199 c -0.30758,-0.21191 -0.55066,-0.40237 -0.82227,-0.64429 -0.0666,-0.0593 -0.12377,-0.11433 -0.16038,-0.15432 -0.59289,-0.64779 -1.14555,-1.44228 -1.68674,-2.42483 -0.0282,-0.0512 -0.0513,-0.0939 -0.0513,-0.0947 0,-8.5e-4 0.62929,-0.002 1.39843,-0.002 h 1.39844 v 1.68554 c 0,0.92705 -4.4e-4,1.6855 -9.8e-4,1.68543 -5.3e-4,-6e-5 -0.0344,-0.0231 -0.0752,-0.0512 z"
       id="path3347" />
    <path
       style="fill:#f5bd13;fill-opacity:1;stroke-width:0.00390625"
       d=""
       id="path3386" />
    <path
       style="fill:#f5bd13;fill-opacity:1;stroke-width:0.00390625"
       d=""
       id="path3425" />
    <path
       style="fill:#f5bd13;fill-opacity:1;stroke-width:0.00390625"
       d="m 495.03626,506.77246 c -0.50949,-0.86733 -0.96548,-1.88186 -1.3769,-3.06348 -0.0282,-0.0811 -0.11444,-0.33618 -0.11444,-0.33864 0,-6.6e-4 0.0289,-10e-4 0.0641,-10e-4 h 0.0641 l 0.01,0.0264 c 0.005,0.0145 0.0371,0.0993 0.0703,0.18847 0.43653,1.1712 0.92519,2.25094 1.42886,3.1572 0.0319,0.0575 0.058,0.10536 0.058,0.10645 0,10e-4 -0.0357,0.002 -0.0793,0.002 h -0.0793 z"
       id="path3464" />
    <path
       style="fill:#f5bd13;fill-opacity:1;stroke-width:0.00390625"
       d=""
       id="path3503" />
    <path
       style="fill:#f5bd13;fill-opacity:1;stroke-width:0.00390625"
       d="m 492.74699,500.5329 c -0.004,-0.016 -0.0222,-0.0984 -0.0414,-0.18329 -0.0586,-0.25895 -0.10636,-0.48152 -0.10461,-0.488 0.001,-0.005 0.002,-0.005 0.002,-1.9e-4 6.2e-4,0.008 0.097,0.37408 0.14295,0.54298 0.038,0.13956 0.048,0.1873 0.0196,0.0931 -0.009,-0.0284 -0.0178,-0.0523 -0.0205,-0.0532 -0.007,-0.002 -0.006,0.01 0.003,0.0635 0.009,0.0526 0.008,0.0682 -0.001,0.0251 z"
       id="path3542" />
    <path
       style="fill:#f5bd13;fill-opacity:1;stroke-width:0.0078125"
       d="m 533.72266,501.07963 c 0,-0.002 0.0343,-0.0225 0.0762,-0.045 0.0419,-0.0225 0.20625,-0.11299 0.36523,-0.20111 2.77127,-1.53607 4.18947,-2.63462 4.75314,-3.68185 0.0218,-0.0405 0.0397,-0.0693 0.0397,-0.0639 1.6e-4,0.0141 -0.0471,0.1483 -0.0902,0.25599 -0.0481,0.12019 -0.15737,0.33649 -0.22232,0.44011 -0.18568,0.29621 -0.41064,0.51856 -0.88655,0.87627 -0.76558,0.57544 -2.03001,1.34318 -3.70312,2.24849 -0.3021,0.16346 -0.33203,0.17888 -0.33203,0.17101 z"
       id="path3581" />
    <path
       style="fill:#f5bd13;fill-opacity:1;stroke-width:0.00390625"
       d="m 613.8418,510.67329 c -1.34257,-0.20434 -2.34977,-0.37263 -3.61133,-0.60339 -0.15899,-0.0291 -0.29917,-0.0547 -0.31152,-0.0569 l -0.0225,-0.004 v -0.0272 c 0,-0.0241 7.9e-4,-0.0269 0.007,-0.0251 0.008,0.002 0.47559,0.0864 0.80566,0.14463 0.94386,0.16664 1.84331,0.31815 2.72657,0.4593 0.2012,0.0322 0.54248,0.0859 0.54527,0.0859 8.8e-4,0 0.002,0.0105 0.002,0.0234 0,0.0199 -10e-4,0.0234 -0.007,0.0231 -0.004,-2e-4 -0.064,-0.009 -0.13379,-0.0197 z"
       id="path3620" />
    <path
       style="fill:#f5bd13;fill-opacity:1;stroke-width:0.00390625"
       d="m 609.69922,509.97234 c -0.54831,-0.10325 -1.28439,-0.24449 -1.30371,-0.25016 -0.005,-0.002 -0.007,-0.006 -0.007,-0.0232 0,-0.0117 10e-4,-0.0212 0.003,-0.0212 10e-4,0 0.124,0.0228 0.27246,0.0506 0.4197,0.0787 0.88928,0.16541 1.18694,0.21927 l 0.0459,0.008 v 0.0269 c 0,0.0148 -4.4e-4,0.0268 -9.7e-4,0.0266 -5.4e-4,-1.8e-4 -0.0889,-0.0169 -0.19629,-0.0371 z"
       id="path3659" />
    <path
       style="fill:#f5bd13;fill-opacity:1;stroke-width:0.00390625"
       d="m 608.36133,509.71615 c -0.01,-0.002 -0.16436,-0.0327 -0.34375,-0.0682 -0.48282,-0.0954 -1.20093,-0.24125 -1.62454,-0.32985 -0.061,-0.0128 -0.11151,-0.0232 -0.1123,-0.0232 -7.9e-4,0 -0.001,-0.006 -0.001,-0.0137 0,-0.008 0.002,-0.0137 0.004,-0.0137 0.002,0 0.11892,0.0228 0.25879,0.0506 0.52968,0.10532 1.18647,0.23316 1.66251,0.32358 l 0.18164,0.0345 8.8e-4,0.0222 c 9.7e-4,0.0244 0.002,0.0237 -0.0263,0.0177 z"
       id="path3698" />
    <path
       style="fill:#f5bd13;fill-opacity:1;stroke-width:0.00390625"
       d="m 606.15625,509.26922 c -0.0644,-0.0137 -0.23057,-0.0488 -0.36914,-0.0781 -0.38094,-0.0804 -1.13258,-0.24145 -1.14941,-0.24633 -0.004,-0.001 -0.007,-0.006 -0.007,-0.01 0,-0.006 0.002,-0.007 0.007,-0.006 0.0168,0.005 0.90791,0.18825 1.33396,0.27426 l 0.3076,0.0621 2e-5,0.0146 c 10e-6,0.008 -10e-4,0.0145 -0.003,0.0143 -0.002,-2.1e-4 -0.0557,-0.0116 -0.12012,-0.0253 z"
       id="path3737" />
    <path
       style="fill:#f5bd13;fill-opacity:1;stroke-width:0.00390625"
       d=""
       id="path3776" />
    <path
       style="fill:#f5bd13;fill-opacity:1;stroke-width:0.00390625"
       d="m 604.54297,508.92503 c -0.043,-0.01 -0.20645,-0.0455 -0.36328,-0.0798 -0.40142,-0.0878 -1.18328,-0.26161 -1.18522,-0.26355 -0.004,-0.004 0.0126,-0.001 0.0548,0.008 0.15311,0.0346 1.01464,0.21904 1.39603,0.29891 0.20454,0.0428 0.18555,0.038 0.18555,0.0469 0,0.009 0.005,0.01 -0.0879,-0.0109 z"
       id="path3815" />
    <path
       style="fill:#f5bd13;fill-opacity:1;stroke-width:0.00390625"
       d="m 616.42187,511.01908 c -0.0408,-0.005 -0.17705,-0.0217 -0.30273,-0.0369 -0.3709,-0.0448 -0.73083,-0.0913 -1.19531,-0.15435 -0.17495,-0.0237 -0.91927,-0.12949 -0.93164,-0.13236 -0.007,-0.002 -0.008,-0.005 -0.008,-0.0253 -1.2e-4,-0.0216 5e-4,-0.0233 0.008,-0.0217 0.0108,0.002 0.44133,0.0682 0.71303,0.10906 0.5849,0.0879 1.29391,0.18938 1.69336,0.2423 0.12428,0.0165 0.12304,0.0162 0.12304,0.0236 0,0.007 -0.007,0.007 -0.0996,-0.004 z"
       id="path3854" />
    <path
       style="fill:#f5bd13;fill-opacity:1;stroke-width:0.00390625"
       d="m 618.9668,511.26721 c -0.77847,-0.0615 -1.40927,-0.12077 -1.76368,-0.16563 -0.6574,-0.0832 -1.2433,-0.16371 -2.09667,-0.28807 l -0.085,-0.0124 v -0.76678 -0.76677 h 2.04297 2.04297 v 1.0039 1.00391 l -0.0244,-4.6e-4 c -0.0134,-2.5e-4 -0.0657,-0.004 -0.11621,-0.008 z"
       id="path3893" />
    <path
       style="fill:#f5bd13;fill-opacity:1;stroke-width:0.00390625"
       d="m 616.75391,511.05659 c -0.12676,-0.0146 -0.23091,-0.0267 -0.23145,-0.0269 -0.002,-8.2e-4 -8e-4,-0.0121 10e-4,-0.0121 0.004,0 0.45081,0.0586 0.47412,0.0622 l 0.0215,0.003 -0.0176,6e-5 c -0.01,2e-5 -0.12129,-0.0119 -0.24804,-0.0265 z"
       id="path3932" />
    <path
       style="fill:#f5bd13;fill-opacity:1;stroke-width:0.00390625"
       d="m 626.25586,511.15217 c 0,-0.0111 -0.005,-0.01 0.084,-0.0234 0.12006,-0.0184 0.39165,-0.0644 0.55469,-0.0939 0.96922,-0.17588 1.8481,-0.39145 2.75781,-0.67643 0.1244,-0.039 0.52874,-0.17353 0.63965,-0.21287 l 0.0498,-0.0177 v 0.0343 0.0343 l -0.0338,0.0122 c -0.1569,0.0568 -0.5183,0.17528 -0.74548,0.24444 -0.98173,0.29889 -2.03885,0.52975 -3.12891,0.68329 -0.0838,0.0118 -0.15805,0.0223 -0.16504,0.0233 -0.0113,0.002 -0.0127,8.2e-4 -0.0127,-0.008 z"
       id="path3971" />
    <path
       style="fill:#f5bd13;fill-opacity:1;stroke-width:0.00390625"
       d="m 625.5918,511.23614 c 0.22459,-0.0297 0.6046,-0.0834 0.65136,-0.0921 0.0117,-0.002 0.0127,-0.002 0.0127,0.008 0,0.006 -5.1e-4,0.0102 -10e-4,0.0102 -6.2e-4,0 -0.0846,0.0105 -0.18652,0.0233 -0.21212,0.0267 -0.53078,0.0628 -0.54846,0.0622 -0.007,-2.2e-4 0.0259,-0.005 0.0721,-0.0115 z"
       id="path4010" />
    <path
       style="fill:#f5bd13;fill-opacity:1;stroke-width:0.00390625"
       d="m 630.3418,510.16256 v -0.0344 l 0.13769,-0.05 c 0.89888,-0.32612 1.78192,-0.72166 2.58868,-1.15954 0.0482,-0.0262 0.0891,-0.0482 0.0908,-0.0489 0.002,-7.1e-4 0.003,0.01 0.003,0.0234 l -6e-5,0.0247 -0.0224,0.0121 c -0.0123,0.007 -0.0655,0.0358 -0.1181,0.0649 -0.42469,0.23421 -0.90909,0.4747 -1.36503,0.67771 -0.4051,0.18038 -0.86146,0.36312 -1.2668,0.50728 l -0.0478,0.017 z"
       id="path4049" />
    <path
       style="fill:#f5bd13;fill-opacity:1;stroke-width:0.00390625"
       d=""
       id="path4088" />
    <path
       style="fill:#f5bd13;fill-opacity:1;stroke-width:0.00390625"
       d="m 633.16211,508.89135 c 0,-0.0226 8.6e-4,-0.0253 0.01,-0.0293 0.0211,-0.01 0.27821,-0.15544 0.41905,-0.23769 0.74032,-0.4323 1.44258,-0.91236 2.12349,-1.45158 0.062,-0.0491 0.11353,-0.0885 0.11451,-0.0875 9.7e-4,9.7e-4 -0.0445,0.0394 -0.10102,0.0855 -0.71174,0.57984 -1.47892,1.11248 -2.2737,1.57859 -0.10056,0.059 -0.25719,0.1488 -0.28029,0.16075 l -0.0117,0.006 z"
       id="path4127" />
  </g>
</svg>
