<?xml version="1.0" encoding="UTF-8" standalone="no"?>
<!-- Created with Inkscape (http://www.inkscape.org/) -->

<svg
   version="1.1"
   id="svg228"
   width="791"
   height="791"
   viewBox="0 0 791 791"
   sodipodi:docname="編入D.svg"
   inkscape:version="1.1 (c68e22c387, 2021-05-23)"
   xmlns:inkscape="http://www.inkscape.org/namespaces/inkscape"
   xmlns:sodipodi="http://sodipodi.sourceforge.net/DTD/sodipodi-0.dtd"
   xmlns="http://www.w3.org/2000/svg"
   xmlns:svg="http://www.w3.org/2000/svg">
  <defs
     id="defs232" />
  <sodipodi:namedview
     id="namedview230"
     pagecolor="#ffffff"
     bordercolor="#666666"
     borderopacity="1.0"
     inkscape:pageshadow="2"
     inkscape:pageopacity="0.0"
     inkscape:pagecheckerboard="0"
     showgrid="false"
     inkscape:zoom="0.50000001"
     inkscape:cx="192"
     inkscape:cy="389"
     inkscape:window-width="1366"
     inkscape:window-height="745"
     inkscape:window-x="-8"
     inkscape:window-y="-8"
     inkscape:window-maximized="1"
     inkscape:current-layer="g234" />
  <g
     inkscape:groupmode="layer"
     inkscape:label="Image"
     id="g234">
    <g
       id="g238"
       transform="translate(5.9999999,2.2125044)">
      <path
         style="fill:#efbb23"
         d="m 392,568.0058 c 0,-1.08436 7.80789,1.41055 -117,-37.38586 L 177.5,500.31217 177.24647,362.65608 C 177.10702,286.94524 177.25773,225 177.58137,225 c 0.32364,0 16.41273,4.91751 35.75354,10.92781 19.3408,6.01029 67.85572,21.08529 107.81094,33.5 39.95523,12.4147 73.70523,22.56185 75,22.54922 1.29478,-0.0126 45.48394,-13.42471 98.19813,-29.8046 l 95.84398,-29.78163 29.9445,-29.4454 c 16.46948,-16.19497 30.27103,-29.56001 30.67011,-29.70009 0.39908,-0.14009 5.21355,4.25016 10.69883,9.7561 l 9.97324,10.0108 -28.23342,28.24646 -28.23342,28.24646 -0.2539,125.44644 -0.2539,125.44643 -9,2.78125 C 496.09295,536.98896 400.60528,567.0075 400.12126,567.74433 399.30788,568.98253 392,569.21782 392,568.0058 Z m 0,-72.38796 v -62.38216 l -3.75,1.33827 c -6.48899,2.31573 -11.33142,1.79935 -16.303,-1.73853 -12.44254,-8.85437 -23.27582,-22.4775 -28.53597,-35.88474 l -2.77959,-7.08473 -2.8114,7.0847 c -4.22698,10.65194 -10.14755,19.26272 -18.59925,27.05044 -11.83152,10.90201 -17.8089,12.9358 -24.71651,8.40976 -3.15729,-2.06874 -3.29426,-5.39526 -0.25428,-6.17578 1.2375,-0.31773 6.26587,-2.62461 11.17415,-5.1264 11.74097,-5.98446 20.43703,-14.50752 26.39583,-25.87067 3.26529,-6.22676 4.81965,-8.238 6.36663,-8.238 1.63445,0 1.92521,-0.45316 1.44368,-2.25 -0.33164,-1.2375 -0.61602,-3.6 -0.63195,-5.25 -0.0521,-5.39685 -1.05949,-5.95609 -11.70879,-6.5 L 317.5,372.5 v -3 -3 l 7,-0.3052 c 7.58366,-0.33064 19.19411,1.30645 21.2262,2.99293 0.87309,0.7246 1.07956,2.63426 0.66821,6.18044 -1.26221,10.88126 4.59141,24.70639 14.63382,34.56225 5.90034,5.79074 18.2585,13.04771 26.38363,15.49302 l 4.60288,1.38526 -0.25737,-63.55309 L 391.5,299.70253 366,291.78701 C 323.10869,278.473 255.28112,257.38224 220.07989,246.41362 201.69883,240.68613 186.28464,236 185.82613,236 c -0.4585,0 -0.71946,58.15073 -0.57989,129.22385 L 185.5,494.4477 l 14,4.32729 c 7.7,2.38001 53.375,16.62696 101.5,31.65989 48.125,15.03294 88.2875,27.38492 89.25,27.44886 1.64921,0.10956 1.75,-3.4767 1.75,-62.2659 z M 276.97525,436.4349 c -0.53639,-1.4108 -0.9802,-3.7733 -0.98626,-5.25 -0.006,-1.47669 -0.28993,-4.3724 -0.63084,-6.4349 -0.51301,-3.10369 -1.02816,-3.75 -2.98899,-3.75 -2.27585,0 -2.36916,0.28751 -2.36916,7.3 0,7.47208 -0.94009,9.7 -4.09301,9.7 C 263.58188,438 263,435.98196 263,427.91821 V 421 h -3 -3 v 6.91821 C 257,436.1062 256.42298,438 253.92819,438 251.16025,438 250,434.89847 250,427.49932 c 0,-6.56818 -0.0253,-6.62911 -2.61841,-6.31574 -2.1288,0.25725 -2.96995,1.26231 -4.49849,5.37505 -3.55373,9.56176 -10.16445,13.73432 -15.66059,9.88467 -2.95214,-2.06776 -2.80271,-3.66724 0.52749,-5.64655 1.5125,-0.89895 4.05995,-3.00872 5.66099,-4.68836 2.49586,-2.61839 2.99605,-4.09373 3.50739,-10.34523 0.32801,-4.01023 0.3088,-8.63499 -0.0427,-10.27724 -0.58248,-2.72152 -0.65041,-2.76454 -0.76715,-0.48592 -0.17929,3.49934 -4.43078,12.29065 -7.18441,14.85605 -1.2657,1.17917 -3.56641,2.14395 -5.1127,2.14395 -3.35267,0 -3.50368,1.14386 -0.74115,5.61373 2.34529,3.79476 1.88654,5.38627 -1.55258,5.38627 -3.22859,0 -8.17341,-4.3736 -9.36449,-8.28273 -1.42144,-4.66517 -2.29229,-17.98696 -1.27902,-19.56566 1.88595,-2.93835 4.55241,-0.77147 5.76387,4.68399 0.64933,2.92401 1.43536,5.57116 1.74675,5.88255 1.41852,1.41852 8.48015,-7.52437 10.01038,-12.6772 1.88678,-6.35347 2.16806,-23.12674 0.46954,-27.99911 -0.90104,-2.58473 -0.85931,-3.42716 0.20225,-4.08324 0.73564,-0.45465 1.77823,-0.55426 2.31687,-0.22136 0.53865,0.3329 10.49871,0.65302 22.13347,0.71137 18.17375,0.0911 21.52258,0.34752 23.7695,1.81976 2.37537,1.5564 2.51627,1.998 1.53533,4.81193 -0.63577,1.82377 -0.81465,5.68876 -0.43486,9.39575 0.77243,7.53937 0.45215,7.78204 -8.55242,6.4801 -7.28851,-1.05382 -25.10368,-1.25239 -29.70988,-0.33115 -3.41877,0.68375 -4.1386,2.72903 -1.375,3.90687 0.9625,0.41021 10.3,0.84434 20.75,0.96472 10.45,0.12038 20.125,0.67196 21.5,1.22573 l 2.5,1.00686 -0.31231,13.38541 c -0.22636,9.70128 0.092,14.69685 1.15658,18.15022 1.37185,4.44999 1.34728,4.8299 -0.37194,5.75 -3.27605,1.75329 -5.96023,1.14721 -6.99708,-1.57991 z M 250,409.39301 c 0,-3.79013 -0.28047,-4.49936 -1.58179,-4 -0.86998,0.33385 -1.99498,0.60699 -2.5,0.60699 -0.50501,0 -0.91821,1.8 -0.91821,4 0,3.6 0.25,4 2.5,4 2.3049,0 2.5,-0.35953 2.5,-4.60699 z M 263,409.5 c 0,-4.33333 -0.11111,-4.5 -3,-4.5 -2.88889,0 -3,0.16667 -3,4.5 0,4.33333 0.11111,4.5 3,4.5 2.88889,0 3,-0.16667 3,-4.5 z m 12,0.5 c 0,-2.2 -0.4132,-4 -0.91821,-4 -0.50502,0 -1.63002,-0.27314 -2.5,-0.60699 -1.30132,-0.49936 -1.58179,0.20987 -1.58179,4 0,4.24746 0.1951,4.60699 2.5,4.60699 2.25,0 2.5,-0.4 2.5,-4 z m -4,-27.09169 c 0,-2.44626 -0.53438,-3.89939 -1.58179,-4.30132 C 268.54823,378.27314 261.61003,378 254,378 c -7.61003,0 -14.54823,0.27314 -15.41821,0.60699 -1.04363,0.40048 -1.58179,1.85198 -1.58179,4.2663 v 3.65932 l 17,0.035 17,0.035 v -3.69433 z m -69.02475,52.52659 c -0.53639,-1.4108 -1.02131,-4.8983 -1.07761,-7.75 -0.0976,-4.9461 -0.14011,-5.02437 -0.92189,-1.69929 -1.04566,4.44742 -6.06547,9.01439 -9.90819,9.01439 -1.59549,0 -3.0656,-0.49412 -3.26691,-1.09804 -0.20131,-0.60393 1.07712,-3.96542 2.84096,-7.46998 1.92404,-3.82286 3.45832,-8.68419 3.83527,-12.15195 1.05029,-9.66219 1.34524,-10.44532 3.80203,-10.09495 1.5323,0.21852 2.40355,1.23321 2.84634,3.31492 l 0.63812,3 0.11832,-3.52748 c 0.11455,-3.41536 -0.0883,-3.61747 -6.38169,-6.35918 -3.86644,-1.6844 -6.5,-3.44149 -6.5,-4.33674 0,-0.82776 2.27638,-4.13268 5.05862,-7.34426 l 5.05862,-5.83924 -5.05862,-2.5634 C 190.26592,379.11454 188,377.27353 188,376.41969 c 0,-1.94946 13.55723,-21.03581 15.46082,-21.76628 1.49311,-0.57296 6.53918,2.84102 6.53918,4.42416 0,0.51283 -2.96874,4.33642 -6.59721,8.49688 -3.62846,4.16046 -6.44096,7.66055 -6.25,7.77798 0.19097,0.11743 1.18482,0.85786 2.20856,1.64539 1.69701,1.30547 2.19585,1.03962 5.65003,-3.01116 3.50198,-4.10684 4.00434,-4.36764 6.63865,-3.44645 1.99056,0.69607 2.94121,1.77706 3.15255,3.58474 0.24969,2.13574 -1.30574,4.10213 -8.89856,11.2497 -5.06063,4.76386 -9.02179,8.82119 -8.80258,9.01628 0.21921,0.19509 1.90953,1.12357 3.75626,2.06327 3.50987,1.78598 6.36642,1.51477 9.50252,-0.90221 1.8053,-1.39134 1.79792,-1.52116 -0.25,-4.3972 C 207.84986,387.9804 207.33629,385 209.04966,385 c 1.48553,0 7.10166,2.93651 9.3151,4.87059 2.62431,2.29309 3.82781,5.97615 3.07413,9.40765 -0.57005,2.59541 -0.96966,2.86561 -3.49205,2.36113 -1.56659,-0.31332 -4.2205,-0.0913 -5.89759,0.49331 L 209,403.19565 l -0.0503,12.15218 c -0.0566,13.68734 -0.47765,20.07933 -1.42337,21.60953 -1.23804,2.0032 -4.5567,1.09302 -5.5511,-1.52246 z M 270.5,366.81572 c -4.98977,-1.2267 -29.73685,-1.57691 -38.65995,-0.5471 -5.47005,0.6313 -6.94403,0.48454 -8.25,-0.82143 -5.90862,-5.90862 6.48515,-8.21037 38.91252,-7.22677 9.50159,0.2882 16.98695,0.9712 18.29063,1.6689 3.12604,1.67301 2.77697,4.76447 -0.74354,6.585 -3.30441,1.70877 -3.90095,1.7301 -9.54966,0.3414 z M 496.81047,528.55997 C 548.88971,512.36795 594.875,498.0612 599,496.76719 l 7.5,-2.35275 0.26436,-30.64153 0.26435,-30.64153 -3.25775,0.93431 c -4.6635,1.33747 -9.30691,1.15504 -13.32418,-0.52348 C 585.91,431.64662 576.34687,424.2608 567.25,415.62683 L 560,408.74574 v 14.04534 C 560,438.19933 559.67858,440 556.92819,440 553.79743,440 553,436.64523 553,423.47409 v -12.6574 l -6.25,6.20559 c -7.20715,7.15594 -11.76239,10.45915 -20.47148,14.84477 -7.2887,3.67037 -8.68391,3.79287 -13.02852,1.14391 -5.58022,-3.40233 -4.37112,-5.21111 5.5,-8.22782 9.81551,-2.99973 18.82951,-8.07597 26.76616,-15.07338 C 548.45422,407.11939 551.34002,405 551.92905,405 552.51807,405 553,404.04107 553,402.86905 c 0,-2.03412 -0.32943,-2.10353 -7.25,-1.52769 -3.9875,0.33179 -7.5875,0.61572 -8,0.63095 -0.4125,0.0152 -0.75,1.50734 -0.75,3.3158 0,4.24533 -3.9678,12.11338 -6.32909,12.55045 -5.50356,1.01868 -8.76325,-2.85845 -5.01601,-5.96612 2.57172,-2.13277 4.3451,-7.32967 4.3451,-12.73333 0,-3.40765 0.4523,-5.0987 1.46797,-5.48845 0.80739,-0.30982 1.73395,-0.13297 2.05902,0.39301 0.66257,1.07206 11.54189,1.29255 16.34801,0.33133 2.16667,-0.43333 3.125,-1.2 3.125,-2.5 0,-2.19482 -0.14249,-2.20289 -15.893,-0.90008 -7.46246,0.61726 -12.03367,0.59951 -13.25,-0.0514 -2.1256,-1.13759 -2.45192,-4.19689 -0.607,-5.69067 0.6875,-0.55666 7.6625,-1.33735 15.5,-1.73489 L 553,382.77518 v -2.91895 c 0,-1.81901 0.63741,-3.16355 1.6915,-3.56804 1.29809,-0.49812 0.89107,-0.9174 -1.75,-1.80271 -5.36771,-1.7993 -4.95416,-4.50298 1.12227,-7.3372 2.77315,-1.29348 7.71802,-4.82922 10.9886,-7.85721 3.81827,-3.53504 6.49609,-5.29454 7.48205,-4.91619 1.37784,0.52873 1.37526,0.89915 -0.0251,3.6072 L 570.94864,361 l 12.27568,0.0576 c 16.20964,0.0761 20.17923,0.79376 20.59759,3.72387 0.45525,3.18836 -4.5262,5.20293 -10.16481,4.11079 -6.11762,-1.18492 -7.66794,-1.08412 -7.07539,0.46004 0.28541,0.74378 -1.77998,4.10361 -4.58977,7.46629 -5.77676,6.91347 -5.94962,6.64486 4.81692,7.48489 5.98676,0.46711 7.67714,1.58989 6.75722,4.48828 -1.06098,3.34285 -5.7393,4.62455 -12.33046,3.37812 -3.15459,-0.59655 -8.99023,-1.38619 -12.96809,-1.75476 -6.22363,-0.57664 -7.32188,-0.43709 -7.87353,1.0005 -0.35259,0.91883 -0.3953,1.91639 -0.0949,2.21679 0.3004,0.3004 5.54077,0.87577 11.64527,1.27861 6.50683,0.42939 11.60729,1.24132 12.32736,1.96236 0.67554,0.67647 1.25597,3.11918 1.28983,5.42826 0.0339,2.30908 0.42726,6.10072 0.87421,8.42585 0.7633,3.97079 0.65328,4.28812 -1.81157,5.22525 -1.4433,0.54878 -2.6242,1.22632 -2.6242,1.50566 0,1.38832 23.66292,11.21201 24.64396,10.23097 0.20207,-0.20207 0.25234,-38.46969 0.11172,-85.03916 L 606.5,257.97845 l -8.43018,7.76077 -8.43018,7.76078 -14.51981,4.71668 c -7.9859,2.59417 -14.63728,4.5992 -14.78085,4.45563 -0.14357,-0.14357 1.99036,-6.99108 4.74207,-15.21668 4.11382,-12.2973 5.66219,-15.64838 8.71103,-18.85301 2.03936,-2.14356 3.03292,-3.67007 2.20792,-3.39225 -1.6673,0.56146 -71.41081,22.24516 -134.5,41.81691 l -41,12.71916 -0.25731,64.66085 -0.2573,64.66084 4.17632,-2.28407 C 409.29471,423.97679 423,410.85238 423,408.74422 c 0,-0.84505 -3.58872,-4.91246 -7.97493,-9.03869 -6.69383,-6.29707 -7.74111,-7.69631 -6.51937,-8.71026 1.62635,-1.34975 6.66703,1.15832 13.8818,6.90713 2.13813,1.70368 4.22221,3.0976 4.63129,3.0976 1.10602,0 3.05962,-8.56957 3.70452,-16.25 l 0.56676,-6.75 h -5.57267 c -3.06498,0 -9.04387,0.4828 -13.28644,1.07289 -6.4549,0.89779 -7.95225,0.83439 -9.17514,-0.3885 -1.78038,-1.78037 -0.86006,-5.38582 1.54533,-6.05399 0.93437,-0.25955 5.18635,-0.77096 9.44885,-1.13647 l 7.75,-0.66457 v -6.79224 c 0,-7.50803 1.6534,-10.37247 4.83382,-8.37436 1.24505,0.7822 1.73992,2.82674 1.95791,8.08915 l 0.29174,7.04237 8.90674,0.70495 c 4.89871,0.38771 9.71743,1.29773 10.70827,2.02226 1.70758,1.24863 1.67115,1.4569 -0.69848,3.99385 -2.19173,2.34649 -3.08571,2.62115 -7.25,2.22739 L 436,379.29359 v 7.6431 c 0,4.20371 -0.6885,10.28644 -1.53,13.51718 l -1.53,5.87407 2.69174,2.80956 c 3.36018,3.50728 3.95257,10.42607 1.04723,12.23112 -1.54103,0.95742 -2.31077,0.55363 -5.00623,-2.6262 l -3.18521,-3.75758 -4.56428,6.29356 c -8.50446,11.72655 -15.81375,15.99131 -21.8607,12.75508 L 400,432.92963 v 62.53519 C 400,538.86546 400.32448,558 401.06047,558 c 0.58326,0 43.67076,-13.24801 95.75,-29.44003 z m -39.70619,-90.40178 c -2.18396,-1.49644 -0.59639,-3.84314 3.06588,-4.53187 5.14376,-0.96734 15.5507,-6.23622 16.75231,-8.48145 C 477.58719,423.90282 478,415.63578 478,403.56574 V 384 l -8.75,0.0596 c -4.8125,0.0328 -10.775,0.38547 -13.25,0.78375 -6.16543,0.99213 -8,0.46601 -8,-2.29424 0,-3.76736 2.1642,-4.55339 14.12184,-5.12899 17.30761,-0.83313 15.76005,0.27985 16.09329,-11.57411 0.22945,-8.16192 0.60903,-10.33734 1.95105,-11.18171 1.20724,-0.75958 2.10243,-0.68627 3.25,0.26612 1.25629,1.04264 1.58382,3.43079 1.58382,11.54842 v 10.23395 l 6.91608,0.64278 c 8.5231,0.79214 10.08392,1.36174 10.08392,3.67998 0,3.49326 -2.96454,5.23073 -7.93124,4.64837 -2.51282,-0.29463 -5.58126,-0.84653 -6.81876,-1.22644 l -2.25,-0.69075 -0.0564,21.86663 c -0.0655,25.3697 -0.59392,27.9632 -6.2617,30.73154 -4.30273,2.10161 -19.30763,3.34864 -21.57758,1.79328 z m -7.57587,-25.53887 c -4.14201,-4.14201 -3.35117,-5.76963 5.09995,-10.4962 10.20184,-5.70572 11.29576,-4.52354 4.66442,5.04076 -2.76344,3.98567 -5.52203,7.41254 -6.1302,7.61526 -0.60817,0.20272 -2.24355,-0.7692 -3.63417,-2.15982 z m 85.91363,-38.7544 c -2.16812,-3.76607 -4.50402,-6.85134 -5.1909,-6.85616 -0.68687,-0.005 -3.08356,1.77177 -5.32599,3.94797 -2.24243,2.17621 -4.98701,4.24552 -6.09906,4.59847 C 516.18996,376.39187 508,373.25174 508,371.40435 c 0,-0.78663 2.5557,-2.6403 5.67933,-4.11927 3.12363,-1.47897 8.42584,-5.25826 11.78268,-8.39843 4.88598,-4.57059 6.44721,-5.51696 7.82729,-4.74463 1.38138,0.77306 1.50781,1.36856 0.63629,2.99702 -0.5982,1.11774 -0.82689,2.29299 -0.50821,2.61167 0.31868,0.31869 4.69569,0.84265 9.72668,1.16436 7.00867,0.44818 9.39189,0.97448 10.19361,2.25111 C 555.04718,365.88835 552.44351,368 547.37756,368 H 543 v 5.88337 c 0,4.83405 -0.32245,5.96769 -1.80796,6.35616 -1.38461,0.36208 -2.73101,-1.13057 -5.75,-6.37461 z m 44.58896,41.67244 c -0.66763,-0.80445 -1.45646,-4.13782 -1.75294,-7.40747 l -0.53906,-5.94483 -7.95762,-0.70441 c -5.25186,-0.4649 -8.32305,-0.33898 -9.03234,0.37031 -0.76629,0.76629 -0.33841,1.35466 1.49098,2.0502 1.41114,0.53651 2.86854,1.46548 3.23868,2.06437 0.68448,1.10752 14.44935,11.03447 15.30057,11.03447 0.25609,0 -0.0806,-0.65819 -0.74827,-1.46264 z m -5.5826,-33.81124 c -0.26886,-0.70064 0.19039,-3.51314 1.02056,-6.25 2.19845,-7.24777 2.1116,-7.47612 -2.84327,-7.47612 -3.60471,0 -5.04657,0.61577 -8.19541,3.5 -2.10162,1.925 -4.49818,3.5 -5.3257,3.5 -1.17023,0 -1.23791,0.26667 -0.30458,1.2 0.66,0.66 1.2,2.46 1.2,4 v 2.8 h 7.46862 c 5.63873,0 7.34884,-0.31211 6.97978,-1.27388 z M 582.5,269.01987 c 7.64559,-2.5804 9.46225,-8.1822 4.23331,-13.0537 -2.44982,-2.28236 -7.9483,-2.60833 -9.96582,-0.5908 -1.90866,1.90866 -5.17646,13.11648 -4.4081,15.1188 0.66977,1.74539 0.54874,1.76298 10.14061,-1.4743 z m 83.00508,-91.01477 -9.9574,-9.99491 6.44727,-6.50509 c 8.76512,-8.84373 10.07569,-8.7893 19.68247,0.81748 9.414,9.414 9.48555,10.59802 1.16407,19.26397 -3.38718,3.5274 -6.43312,6.41345 -6.76876,6.41345 -0.33564,0 -5.09108,-4.49771 -10.56765,-9.9949 z"
         id="path242" />
      <path
         style="fill:#000030"
         d="M 0,395.5 V 0 H 395.5 791 V 395.5 791 H 395.5 0 Z M 400.12126,567.74433 C 400.60528,567.0075 496.09295,536.98896 605.5,503.17925 l 9,-2.78125 0.2539,-125.44643 0.2539,-125.44644 28.23342,-28.24646 28.23342,-28.24646 -9.97324,-10.0108 c -5.48528,-5.50594 -10.29975,-9.89619 -10.69883,-9.7561 -0.39908,0.14008 -14.20063,13.50512 -30.67011,29.70009 l -29.9445,29.4454 -95.84398,29.78163 c -52.71419,16.37989 -96.90335,29.79196 -98.19813,29.8046 -1.29477,0.0126 -35.04477,-10.13452 -75,-22.54922 -39.95522,-12.41471 -88.47014,-27.48971 -107.81094,-33.5 C 193.9941,229.91751 177.90501,225 177.58137,225 c -0.32364,0 -0.47435,61.94524 -0.3349,137.65608 L 177.5,500.31217 275,530.61994 c 124.80789,38.79641 117,36.3015 117,37.38586 0,1.21202 7.30788,0.97673 8.12126,-0.26147 z M 301,530.43488 C 252.875,515.40195 207.2,501.155 199.5,498.77499 l -14,-4.32729 -0.25376,-129.22385 C 185.10667,294.15073 185.36763,236 185.82613,236 c 0.45851,0 15.8727,4.68613 34.25376,10.41362 C 255.28112,257.38224 323.10869,278.473 366,291.78701 l 25.5,7.91552 0.25737,63.55308 0.25737,63.55309 -4.60288,-1.38526 c -8.12513,-2.44531 -20.48329,-9.70228 -26.38363,-15.49302 -10.04241,-9.85586 -15.89603,-23.68099 -14.63382,-34.56225 0.41135,-3.54618 0.20488,-5.45584 -0.66821,-6.18044 -2.03209,-1.68648 -13.64254,-3.32357 -21.2262,-2.99293 l -7,0.3052 v 3 3 l 9.78955,0.5 c 10.6493,0.54391 11.65668,1.10315 11.70879,6.5 0.0159,1.65 0.30031,4.0125 0.63195,5.25 0.48153,1.79684 0.19077,2.25 -1.44368,2.25 -1.54698,0 -3.10134,2.01124 -6.36663,8.238 -5.9588,11.36315 -14.65486,19.88621 -26.39583,25.87067 -4.90828,2.50179 -9.93665,4.80867 -11.17415,5.1264 -3.03998,0.78052 -2.90301,4.10704 0.25428,6.17578 6.90761,4.52604 12.88499,2.49225 24.71651,-8.40976 8.4517,-7.78772 14.37227,-16.3985 18.59925,-27.05044 l 2.8114,-7.0847 2.77959,7.08473 c 5.26015,13.40724 16.09343,27.03037 28.53597,35.88474 4.97158,3.53788 9.81401,4.05426 16.303,1.73853 l 3.75,-1.33827 v 62.38216 c 0,58.7892 -0.10079,62.37546 -1.75,62.2659 -0.9625,-0.0639 -41.125,-12.41592 -89.25,-27.44886 z m -17.02767,-92.42007 c 1.71922,-0.9201 1.74379,-1.30001 0.37194,-5.75 -1.06461,-3.45337 -1.38294,-8.44894 -1.15658,-18.15022 L 283.5,400.72918 281,399.72232 c -1.375,-0.55377 -11.05,-1.10535 -21.5,-1.22573 -10.45,-0.12038 -19.7875,-0.55451 -20.75,-0.96472 -2.7636,-1.17784 -2.04377,-3.22312 1.375,-3.90687 4.6062,-0.92124 22.42137,-0.72267 29.70988,0.33115 9.00457,1.30194 9.32485,1.05927 8.55242,-6.4801 -0.37979,-3.70699 -0.20091,-7.57198 0.43486,-9.39575 0.98094,-2.81393 0.84004,-3.25553 -1.53533,-4.81193 -2.24692,-1.47224 -5.59575,-1.72862 -23.7695,-1.81976 -11.63476,-0.0583 -21.59482,-0.37847 -22.13347,-0.71137 -0.53864,-0.3329 -1.58123,-0.23329 -2.31687,0.22136 -1.06156,0.65608 -1.10329,1.49851 -0.20225,4.08324 1.69852,4.87237 1.41724,21.64564 -0.46954,27.99911 -1.53023,5.15283 -8.59186,14.09572 -10.01038,12.6772 -0.31139,-0.31139 -1.09742,-2.95854 -1.74675,-5.88255 -1.21146,-5.45546 -3.87792,-7.62234 -5.76387,-4.68399 -1.01327,1.5787 -0.14242,14.90049 1.27902,19.56566 1.19108,3.90913 6.1359,8.28273 9.36449,8.28273 3.43912,0 3.89787,-1.59151 1.55258,-5.38627 C 220.30776,423.14386 220.45877,422 223.81144,422 c 1.54629,0 3.847,-0.96478 5.1127,-2.14395 2.75363,-2.5654 7.00512,-11.35671 7.18441,-14.85605 0.11674,-2.27862 0.18467,-2.2356 0.76715,0.48592 0.35148,1.64225 0.37069,6.26701 0.0427,10.27724 -0.51134,6.2515 -1.01153,7.72684 -3.50739,10.34523 -1.60104,1.67964 -4.14849,3.78941 -5.66099,4.68836 -3.3302,1.97931 -3.47963,3.57879 -0.52749,5.64655 5.49614,3.84965 12.10686,-0.32291 15.66059,-9.88467 1.52854,-4.11274 2.36969,-5.1178 4.49849,-5.37505 C 249.97474,420.87021 250,420.93114 250,427.49932 250,434.89847 251.16025,438 253.92819,438 256.42298,438 257,436.1062 257,427.91821 V 421 h 3 3 v 6.91821 C 263,435.98196 263.58188,438 265.90699,438 269.05991,438 270,435.77208 270,428.3 c 0,-7.01249 0.0933,-7.3 2.36916,-7.3 1.96083,0 2.47598,0.64631 2.98899,3.75 0.34091,2.0625 0.62479,4.95821 0.63084,6.4349 0.0275,6.71017 3.17524,9.40312 7.98334,6.82991 z M 245,410 c 0,-2.2 0.4132,-4 0.91821,-4 0.50502,0 1.63002,-0.27314 2.5,-0.60699 1.30132,-0.49936 1.58179,0.20987 1.58179,4 0,4.24746 -0.1951,4.60699 -2.5,4.60699 -2.25,0 -2.5,-0.4 -2.5,-4 z m 12,-0.5 c 0,-4.33333 0.11111,-4.5 3,-4.5 2.88889,0 3,0.16667 3,4.5 0,4.33333 -0.11111,4.5 -3,4.5 -2.88889,0 -3,-0.16667 -3,-4.5 z m 13,-0.10699 c 0,-3.79013 0.28047,-4.49936 1.58179,-4 0.86998,0.33385 1.99498,0.60699 2.5,0.60699 0.50501,0 0.91821,1.8 0.91821,4 0,3.6 -0.25,4 -2.5,4 -2.3049,0 -2.5,-0.35953 -2.5,-4.60699 z m -33,-26.51972 c 0,-2.41432 0.53816,-3.86582 1.58179,-4.2663 C 239.45177,378.27314 246.38997,378 254,378 c 7.61003,0 14.54823,0.27314 15.41821,0.60699 1.04741,0.40193 1.58179,1.85506 1.58179,4.30132 v 3.69433 l -17,-0.035 -17,-0.035 v -3.65932 z m -29.47365,54.08407 c 0.94572,-1.5302 1.36674,-7.92219 1.42337,-21.60953 L 209,403.19565 l 3.04925,-1.06297 c 1.67709,-0.58464 4.331,-0.80663 5.89759,-0.49331 2.52239,0.50448 2.922,0.23428 3.49205,-2.36113 0.75368,-3.4315 -0.44982,-7.11456 -3.07413,-9.40765 C 216.15132,387.93651 210.53519,385 209.04966,385 c -1.71337,0 -1.1998,2.9804 1.06056,6.15479 2.04792,2.87604 2.0553,3.00586 0.25,4.3972 -3.1361,2.41698 -5.99265,2.68819 -9.50252,0.90221 -1.84673,-0.9397 -3.53705,-1.86818 -3.75626,-2.06327 -0.21921,-0.19509 3.74195,-4.25242 8.80258,-9.01628 7.59282,-7.14757 9.14825,-9.11396 8.89856,-11.2497 -0.21134,-1.80768 -1.16199,-2.88867 -3.15255,-3.58474 -2.63431,-0.92119 -3.13667,-0.66039 -6.63865,3.44645 -3.45418,4.05078 -3.95302,4.31663 -5.65003,3.01116 -1.02374,-0.78753 -2.01759,-1.52796 -2.20856,-1.64539 -0.19096,-0.11743 2.62154,-3.61752 6.25,-7.77798 3.62847,-4.16046 6.59721,-7.98405 6.59721,-8.49688 0,-1.58314 -5.04607,-4.99712 -6.53918,-4.42416 C 201.55723,355.38388 188,374.47023 188,376.41969 c 0,0.85384 2.26592,2.69485 5.05862,4.11001 l 5.05862,2.5634 -5.05862,5.83924 C 190.27638,392.14392 188,395.44884 188,396.2766 c 0,0.89525 2.63356,2.65234 6.5,4.33674 6.29342,2.74171 6.49624,2.94382 6.38169,6.35918 l -0.11832,3.52748 -0.63812,-3 c -0.44279,-2.08171 -1.31404,-3.0964 -2.84634,-3.31492 -2.45679,-0.35037 -2.75174,0.43276 -3.80203,10.09495 -0.37695,3.46776 -1.91123,8.32909 -3.83527,12.15195 -1.76384,3.50456 -3.04227,6.86605 -2.84096,7.46998 0.20131,0.60392 1.67142,1.09804 3.26691,1.09804 3.84272,0 8.86253,-4.56697 9.90819,-9.01439 0.78178,-3.32508 0.82424,-3.24681 0.92189,1.69929 0.13339,6.75653 1.51975,10.3151 4.01859,10.3151 1.08116,0 2.25571,-0.46919 2.61012,-1.04264 z m 72.52331,-70.48304 c 3.52051,-1.82053 3.86958,-4.91199 0.74354,-6.585 -5.4067,-2.89357 -54.31171,-2.22795 -57.31982,0.78015 -1.87746,1.87747 -1.85478,2.80627 0.11667,4.77772 1.30597,1.30597 2.77995,1.45273 8.25,0.82143 8.9231,-1.02981 33.67018,-0.6796 38.65995,0.5471 5.64871,1.3887 6.24525,1.36737 9.54966,-0.3414 z M 400,495.46482 v -62.53519 l 2.06255,1.10385 c 6.04695,3.23623 13.35624,-1.02853 21.8607,-12.75508 l 4.56428,-6.29356 3.18521,3.75758 c 2.69546,3.17983 3.4652,3.58362 5.00623,2.6262 2.90534,-1.80505 2.31295,-8.72384 -1.04723,-12.23112 l -2.69174,-2.80956 1.53,-5.87407 c 0.8415,-3.23074 1.53,-9.31347 1.53,-13.51718 v -7.6431 l 4.75,0.44914 c 4.16429,0.39376 5.05827,0.1191 7.25,-2.22739 2.36963,-2.53695 2.40606,-2.74522 0.69848,-3.99385 -0.99084,-0.72453 -5.80956,-1.63455 -10.70827,-2.02226 l -8.90674,-0.70495 -0.29174,-7.04237 c -0.21799,-5.26241 -0.71286,-7.30695 -1.95791,-8.08915 C 423.6534,353.66465 422,356.52909 422,364.03712 v 6.79224 l -7.75,0.66457 c -4.2625,0.36551 -8.51448,0.87692 -9.44885,1.13647 -2.40539,0.66817 -3.32571,4.27362 -1.54533,6.05399 1.22289,1.22289 2.72024,1.28629 9.17514,0.3885 C 416.67353,378.4828 422.65242,378 425.7174,378 h 5.57267 l -0.56676,6.75 c -0.6449,7.68043 -2.5985,16.25 -3.70452,16.25 -0.40908,0 -2.49316,-1.39392 -4.63129,-3.0976 -7.21477,-5.74881 -12.25545,-8.25688 -13.8818,-6.90713 -1.22174,1.01395 -0.17446,2.41319 6.51937,8.71026 4.38621,4.12623 7.97493,8.19364 7.97493,9.03869 0,2.10816 -13.70529,15.23257 -18.83829,18.03984 l -4.17632,2.28407 0.2573,-64.66084 0.25731,-64.66085 41,-12.71916 c 63.08919,-19.57175 132.8327,-41.25545 134.5,-41.81691 0.825,-0.27782 -0.16856,1.24869 -2.20792,3.39225 -3.04884,3.20463 -4.59721,6.55571 -8.71103,18.85301 -2.75171,8.2256 -4.88564,15.07311 -4.74207,15.21668 0.14357,0.14357 6.79495,-1.86146 14.78085,-4.45563 l 14.51981,-4.71668 8.43018,-7.76078 8.43018,-7.76077 0.25568,84.67176 c 0.14062,46.56947 0.0904,84.83709 -0.11172,85.03916 C 605.66292,428.67041 582,418.84672 582,417.4584 c 0,-0.27934 1.1809,-0.95688 2.62421,-1.50563 2.46485,-0.93713 2.57487,-1.25446 1.81157,-5.22525 -0.44695,-2.32513 -0.84035,-6.11677 -0.87421,-8.42585 -0.0339,-2.30908 -0.61429,-4.75179 -1.28983,-5.42826 -0.72007,-0.72104 -5.82053,-1.53297 -12.32736,-1.96236 -6.1045,-0.40284 -11.34487,-0.97821 -11.64527,-1.27861 -0.30041,-0.3004 -0.2577,-1.29796 0.0949,-2.21679 0.55165,-1.43759 1.6499,-1.57714 7.87353,-1.0005 3.97786,0.36857 9.8135,1.15821 12.96809,1.75476 6.59116,1.24643 11.26948,-0.0353 12.33046,-3.37812 0.91992,-2.89839 -0.77046,-4.02117 -6.75722,-4.48828 -10.76654,-0.84003 -10.59368,-0.57142 -4.81692,-7.48489 2.80979,-3.36268 4.87518,-6.72251 4.58977,-7.46629 -0.59255,-1.54416 0.95777,-1.64496 7.07539,-0.46004 5.63861,1.09214 10.62006,-0.92243 10.16481,-4.11079 -0.41836,-2.93011 -4.38795,-3.64777 -20.59759,-3.72387 L 570.94864,361 l 1.56065,-3.01797 c 1.40039,-2.70805 1.40297,-3.07847 0.0251,-3.6072 -0.98596,-0.37835 -3.66378,1.38115 -7.48205,4.91619 -3.27058,3.02799 -8.21545,6.56373 -10.9886,7.85721 -6.07643,2.83422 -6.48998,5.5379 -1.12227,7.3372 2.64107,0.88531 3.04809,1.30459 1.75,1.80271 -1.05409,0.40449 -1.6915,1.74903 -1.6915,3.56804 v 2.91895 l -14.25,0.72278 c -7.8375,0.39754 -14.8125,1.17823 -15.5,1.73489 -1.84492,1.49378 -1.5186,4.55308 0.607,5.69067 1.21633,0.65096 5.78754,0.66871 13.25,0.0514 15.75051,-1.30281 15.893,-1.29474 15.893,0.90008 0,1.3 -0.95833,2.06667 -3.125,2.5 -4.80612,0.96122 -15.68544,0.74073 -16.34801,-0.33133 -0.32507,-0.52598 -1.25163,-0.70283 -2.05902,-0.39301 -1.01567,0.38975 -1.46797,2.0808 -1.46797,5.48845 0,5.40366 -1.77338,10.60056 -4.3451,12.73333 -3.74724,3.10767 -0.48755,6.9848 5.01601,5.96612 2.36132,-0.43702 6.32912,-8.30507 6.32912,-12.5504 0,-1.80846 0.3375,-3.30057 0.75,-3.3158 0.4125,-0.0152 4.0125,-0.29916 8,-0.63095 6.92057,-0.57584 7.25,-0.50643 7.25,1.52769 0,1.17202 -0.48193,2.13095 -1.07095,2.13095 -0.58903,0 -3.47483,2.11939 -6.41289,4.70976 -7.93665,6.99741 -16.95065,12.07365 -26.76616,15.07338 -9.87112,3.01671 -11.08022,4.82549 -5.5,8.22782 4.34461,2.64896 5.73982,2.52646 13.02852,-1.14391 8.70909,-4.38562 13.26433,-7.68883 20.47148,-14.84477 l 6.25,-6.20559 v 12.6574 C 553,436.64523 553.79743,440 556.92819,440 559.67858,440 560,438.19933 560,422.79108 v -14.04534 l 7.25,6.88109 c 9.09687,8.63397 18.66,16.01979 23.19678,17.91538 4.01727,1.67852 8.66068,1.86095 13.32418,0.52348 l 3.25775,-0.93431 -0.26435,30.64153 -0.26436,30.64153 -7.5,2.35275 C 541.98305,514.6534 401.862,558 401.06047,558 400.32448,558 400,538.86546 400,495.46482 Z m 78.68186,-59.09991 c 5.66778,-2.76834 6.19621,-5.36184 6.2617,-30.73154 L 485,383.76674 l 2.25,0.69075 c 1.2375,0.37991 4.30594,0.93181 6.81876,1.22644 4.9667,0.58236 7.93124,-1.15511 7.93124,-4.64837 0,-2.31824 -1.56082,-2.88784 -10.08392,-3.67998 L 485,376.7128 v -10.23395 c 0,-8.11763 -0.32753,-10.50578 -1.58382,-11.54842 -1.14757,-0.95239 -2.04276,-1.0257 -3.25,-0.26612 -1.34202,0.84437 -1.7216,3.01979 -1.95105,11.18171 -0.33324,11.85396 1.21432,10.74098 -16.09329,11.57411 C 450.1642,377.99573 448,378.78176 448,382.54912 c 0,2.76025 1.83457,3.28637 8,2.29424 2.475,-0.39828 8.4375,-0.75096 13.25,-0.78375 L 478,384 v 19.56574 c 0,12.07004 -0.41281,20.33708 -1.07753,21.57913 -1.20161,2.24523 -11.60855,7.51411 -16.75231,8.48145 -3.66227,0.68873 -5.24984,3.03543 -3.06588,4.53187 2.26995,1.55536 17.27485,0.30833 21.57758,-1.79328 z m -19.38908,-29.20103 c 6.63134,-9.5643 5.53742,-10.74648 -4.66442,-5.04076 -5.21967,2.91927 -7.62836,4.85078 -7.62836,6.1171 0,2.20175 4.58359,7.06525 6.16258,6.53892 0.60817,-0.20272 3.36676,-3.62959 6.1302,-7.61526 z M 543,373.88337 V 368 h 4.37756 c 5.06595,0 7.66962,-2.11165 5.96011,-4.83382 -0.80172,-1.27663 -3.18494,-1.80293 -10.19361,-2.25111 -5.03099,-0.32171 -9.408,-0.84567 -9.72668,-1.16436 -0.31868,-0.31868 -0.09,-1.49393 0.50821,-2.61167 0.87152,-1.62846 0.74509,-2.22396 -0.63629,-2.99702 -1.38008,-0.77233 -2.94131,0.17404 -7.82729,4.74463 -3.35684,3.14017 -8.65905,6.91946 -11.78268,8.39843 -3.12363,1.47897 -5.67933,3.33264 -5.67933,4.11927 0,1.84739 8.18996,4.98752 10.82609,4.15085 1.11205,-0.35295 3.85663,-2.42226 6.09906,-4.59847 2.24243,-2.1762 4.63912,-3.95279 5.32599,-3.94797 0.68688,0.005 3.02278,3.09009 5.1909,6.85616 3.01899,5.24404 4.36539,6.73669 5.75,6.37461 C 542.67755,379.85106 543,378.71742 543,373.88337 Z m 30.23266,38.14384 c -3.89454,-2.73503 -7.38383,-5.46279 -7.75396,-6.06168 -0.37014,-0.59889 -1.82754,-1.52786 -3.23868,-2.06437 -1.82939,-0.69554 -2.25727,-1.28391 -1.49098,-2.0502 0.70929,-0.70929 3.78048,-0.83521 9.03234,-0.37031 l 7.95762,0.70441 0.53906,5.94483 c 0.29648,3.26965 1.08531,6.60302 1.75294,7.40747 2.00627,2.4174 0.63124,1.70744 -6.79834,-3.51015 z M 560,380.2 c 0,-1.54 -0.54,-3.34 -1.2,-4 -0.93333,-0.93333 -0.86565,-1.2 0.30458,-1.2 0.82752,0 3.22408,-1.575 5.3257,-3.5 3.14884,-2.88423 4.5907,-3.5 8.19541,-3.5 4.95487,0 5.04172,0.22835 2.84327,7.47612 -0.83017,2.73686 -1.28942,5.54936 -1.02056,6.25 C 574.81746,382.68789 573.10735,383 567.46862,383 H 560 Z m 12.35939,-109.70583 c -0.76836,-2.00232 2.49944,-13.21014 4.4081,-15.1188 2.01752,-2.01753 7.516,-1.69156 9.96582,0.5908 5.22894,4.8715 3.41228,10.4733 -4.23331,13.0537 -9.59187,3.23728 -9.47084,3.21969 -10.14061,1.4743 z m 110.4821,-88.90762 c 8.32148,-8.66595 8.24993,-9.84997 -1.16407,-19.26397 -9.60678,-9.60678 -10.91735,-9.66121 -19.68247,-0.81748 l -6.44727,6.50509 9.9574,9.99491 c 5.47657,5.49719 10.23201,9.9949 10.56765,9.9949 0.33564,0 3.38158,-2.88605 6.76876,-6.41345 z"
         id="path240" />
    </g>
    <path
       style="fill:#f5bd13;stroke-width:0.00390625"
       d="m 433.99414,956.20062 v -0.0171 l 0.74707,-0.22988 c 0.41089,-0.12644 1.32846,-0.409 2.03904,-0.6279 0.71058,-0.21891 1.29383,-0.39802 1.29612,-0.39802 0.002,0 0.004,0.007 0.003,0.0161 l -10e-4,0.0161 -0.71484,0.22031 c -1.08546,0.33454 -3.35457,1.03341 -3.3623,1.03556 -0.006,0.002 -0.007,-7.8e-4 -0.007,-0.0152 z"
       id="path299" />
    <path
       style="fill:#f5bd13;stroke-width:0.00390625"
       d=""
       id="path338" />
    <path
       style="fill:#f5bd13;stroke-width:0.00390625"
       d="m 438.08008,954.94241 v -0.0171 l 1.27246,-0.39195 c 0.69985,-0.21557 1.27466,-0.39275 1.27734,-0.39373 0.003,-10e-4 0.005,0.003 0.005,0.0152 v 0.017 l -0.0596,0.0183 c -0.10362,0.0319 -2.47713,0.76356 -2.48633,0.76649 -0.008,0.003 -0.009,0.002 -0.009,-0.0143 z"
       id="path377" />
    <path
       style="fill:#f5bd13;stroke-width:0.00390625"
       d="m 440.63688,954.15574 c -0.001,-0.008 -0.001,-0.0154 5.4e-4,-0.017 0.002,-0.002 0.22469,-0.0709 0.49539,-0.1542 0.27071,-0.0833 0.83086,-0.25579 1.24479,-0.3834 0.41393,-0.1276 0.75372,-0.23201 0.75511,-0.23201 0.001,0 0.002,0.007 0.001,0.0161 l -0.001,0.0161 -1.246,0.38429 c -0.6853,0.21137 -1.24629,0.3843 -1.24664,0.3843 -3.4e-4,0 -0.002,-0.006 -0.003,-0.0142 z"
       id="path416" />
    <path
       style="fill:#f5bd13;stroke-width:0.00390625"
       d="m 443.13483,953.38421 7e-5,-0.017 1.5263,-0.47034 c 0.83947,-0.25868 1.52861,-0.47117 1.53143,-0.47219 0.004,-10e-4 0.005,0.002 0.004,0.0148 l -0.001,0.0167 -0.94726,0.29241 c -0.521,0.16083 -1.20743,0.37266 -1.52539,0.47074 -0.31797,0.0981 -0.58033,0.17915 -0.58301,0.18016 -0.003,10e-4 -0.005,-0.003 -0.005,-0.0152 z"
       id="path455" />
    <path
       style="fill:#f5bd13;stroke-width:0.00390625"
       d="m 446.198,952.4392 0.001,-0.0166 1.09961,-0.33926 c 0.60478,-0.18659 1.10356,-0.34033 1.1084,-0.34163 0.008,-0.002 0.009,-10e-4 0.009,0.0132 0,0.0115 -0.002,0.0161 -0.007,0.0175 -0.004,10e-4 -0.31445,0.0969 -0.69043,0.21312 -0.37598,0.11616 -0.86866,0.26834 -1.09486,0.33817 -0.2262,0.0698 -0.41483,0.12809 -0.41919,0.12947 -0.007,0.002 -0.008,10e-4 -0.007,-0.014 z"
       id="path494" />
    <path
       style="fill:#f5bd13;stroke-width:0.00390625"
       d="m 448.41677,951.75496 0.001,-0.0164 0.1543,-0.0476 c 0.0849,-0.0262 0.85257,-0.2631 1.70602,-0.52649 0.85344,-0.26338 1.5536,-0.47888 1.5559,-0.47888 0.002,0 0.004,0.006 0.003,0.0142 l -0.001,0.0142 -1.70416,0.52641 c -0.93728,0.28952 -1.70687,0.52744 -1.71018,0.52872 -0.005,0.002 -0.006,-6.4e-4 -0.005,-0.0141 z"
       id="path533" />
    <path
       style="fill:#f5bd13;stroke-width:0.00390625"
       d=""
       id="path572" />
    <path
       style="fill:#f5bd13;stroke-width:0.00390625"
       d="m 451.83789,950.69826 v -0.0151 l 1.83301,-0.56578 c 1.00815,-0.31117 1.83608,-0.56659 1.83984,-0.56759 0.006,-10e-4 0.007,7.5e-4 0.007,0.0121 v 0.014 l -0.04,0.0123 c -0.0812,0.025 -3.62357,1.12013 -3.63147,1.12264 -0.007,0.002 -0.008,10e-4 -0.008,-0.0126 z"
       id="path611" />
    <path
       style="fill:#f5bd13;stroke-width:0.00390625"
       d="m 455.51947,949.56027 c -0.001,-0.007 -0.002,-0.0124 -0.001,-0.0129 7.4e-4,-5.1e-4 0.36522,-0.11319 0.80994,-0.25039 0.44473,-0.1372 0.92075,-0.2841 1.05783,-0.32643 l 0.24923,-0.077 -10e-4,0.014 -0.001,0.014 -1.05078,0.32521 c -0.57793,0.17886 -1.05284,0.32528 -1.05535,0.32537 -0.003,8e-5 -0.006,-0.005 -0.007,-0.0118 z"
       id="path650" />
    <path
       style="fill:#f5bd13;stroke-width:0.00390625"
       d="m 457.63623,948.90772 c 10e-4,-0.007 0.003,-0.0135 0.004,-0.0146 0.002,-0.002 2.15834,-0.66853 2.16327,-0.66854 0.002,-10e-6 0.003,0.006 0.002,0.0125 l -10e-4,0.0125 -1.07617,0.33293 c -0.5919,0.18312 -1.08037,0.33401 -1.0855,0.33532 -0.009,0.002 -0.009,0.002 -0.007,-0.0102 z"
       id="path689" />
    <path
       style="fill:#f5bd13;stroke-width:0.00390625"
       d="m 459.5332,949.06282 v -0.72429 l 0.0244,-0.008 c 0.0134,-0.004 0.92529,-0.28672 2.02636,-0.62739 1.10108,-0.34066 2.00943,-0.62186 2.01856,-0.62489 l 0.0166,-0.006 v 1.35718 1.35719 h -2.04297 -2.04297 z"
       id="path728" />
    <path
       style="fill:#f5bd13;stroke-width:0.00390625"
       d="m 459.80666,948.23543 3e-5,-0.0128 1.90329,-0.58756 c 1.04682,-0.32315 1.90474,-0.58832 1.90651,-0.58927 0.002,-9.4e-4 0.003,0.004 0.002,0.011 l -0.001,0.0127 -1.89649,0.58705 c -1.04306,0.32288 -1.90044,0.58806 -1.90527,0.58929 -0.008,0.002 -0.009,7.7e-4 -0.009,-0.0105 z"
       id="path767" />
    <path
       style="fill:#f5bd13;stroke-width:0.00390625"
       d="m 463.61914,947.74636 c 0,-0.63812 3.6e-4,-0.67367 0.007,-0.6756 0.004,-10e-4 0.31709,-0.098 0.69629,-0.21541 0.37919,-0.11736 0.95048,-0.29417 1.26953,-0.39291 0.31904,-0.0987 0.58227,-0.18028 0.58496,-0.18121 0.004,-0.001 0.005,0.21405 0.005,1.0685 v 1.07019 h -1.28125 -1.28125 z"
       id="path806" />
    <path
       style="fill:#f5bd13;stroke-width:0.00390625"
       d="m 463.61914,947.05722 c 0,-0.0105 0.002,-0.0123 0.0186,-0.0177 0.0677,-0.0219 2.53645,-0.78368 2.53978,-0.78368 0.002,0 0.004,0.004 0.004,0.01 0,0.009 -0.004,0.0108 -0.0557,0.0271 -0.0439,0.0138 -2.02048,0.62598 -2.5,0.77427 -0.005,0.002 -0.007,-2.4e-4 -0.007,-0.01 z"
       id="path845" />
    <path
       style="fill:#f5bd13;stroke-width:0.0078125"
       d="m 447.06874,816.94922 c -0.0403,-0.17365 -0.0648,-0.35711 -0.0648,-0.48325 1.3e-4,-0.40832 0.23825,-0.8707 0.72546,-1.40868 0.11916,-0.13157 0.39856,-0.4098 0.54139,-0.53911 0.19755,-0.17886 0.57468,-0.49564 0.5817,-0.48861 0.002,0.002 -0.0326,0.0347 -0.0768,0.0728 -0.73052,0.63042 -1.23418,1.25063 -1.47756,1.81946 -0.13582,0.31744 -0.19678,0.59123 -0.20697,0.92969 l -0.005,0.17188 z"
       id="path921" />
    <path
       style="fill:#f5bd13;stroke-width:0.00390625"
       d=""
       id="path960" />
    <path
       style="fill:#f5bd13;stroke-width:0.00390625"
       d="m 452.82422,823.02669 c -0.0889,-0.007 -0.16058,-0.0193 -0.25542,-0.0426 -0.52726,-0.1296 -1.22245,-0.54925 -1.98798,-1.20004 -0.0415,-0.0353 -0.0747,-0.0649 -0.0737,-0.0659 9.5e-4,-9.5e-4 0.0279,0.0191 0.0598,0.0445 0.67875,0.54064 1.34518,0.94765 1.86503,1.13903 0.19215,0.0707 0.34846,0.10719 0.50163,0.117 0.0654,0.004 0.071,0.005 0.0469,0.007 -0.0284,0.003 -0.12905,0.003 -0.15625,8.1e-4 z"
       id="path999" />
  </g>
</svg>
