<?xml version="1.0" encoding="UTF-8" standalone="no"?>
<!-- Created with Inkscape (http://www.inkscape.org/) -->

<svg
   version="1.1"
   id="svg9"
   width="791"
   height="791"
   viewBox="0 0 791 791"
   sodipodi:docname="編入L.svg"
   inkscape:version="1.1 (c68e22c387, 2021-05-23)"
   xmlns:inkscape="http://www.inkscape.org/namespaces/inkscape"
   xmlns:sodipodi="http://sodipodi.sourceforge.net/DTD/sodipodi-0.dtd"
   xmlns="http://www.w3.org/2000/svg"
   xmlns:svg="http://www.w3.org/2000/svg">
  <defs
     id="defs13" />
  <sodipodi:namedview
     id="namedview11"
     pagecolor="#ffffff"
     bordercolor="#666666"
     borderopacity="1.0"
     inkscape:pageshadow="2"
     inkscape:pageopacity="0.0"
     inkscape:pagecheckerboard="0"
     showgrid="false"
     inkscape:zoom="0.67888748"
     inkscape:cx="139.93482"
     inkscape:cy="276.18715"
     inkscape:window-width="1366"
     inkscape:window-height="745"
     inkscape:window-x="-8"
     inkscape:window-y="-8"
     inkscape:window-maximized="1"
     inkscape:current-layer="g15" />
  <g
     inkscape:groupmode="layer"
     inkscape:label="Image"
     id="g15">
    <g
       id="g259"
       transform="translate(2.9459963,-1.4729947)">
      <path
         style="fill:#fdfdfd"
         d="M 0,395.5 V 0 H 395.5 791 V 395.5 791 H 395.5 0 Z"
         id="path265" />
      <path
         style="fill:#fcf0cc"
         d="M 390.16977,568.82481 C 388.7014,567.90346 374.9,563.26239 359.5,558.51132 344.1,553.76026 320.925,546.57031 308,542.53365 c -12.925,-4.03666 -46.225,-14.38517 -74,-22.99668 -27.775,-8.61151 -51.96595,-16.11626 -53.75768,-16.67722 -1.79172,-0.56096 -3.70422,-1.8543 -4.25,-2.87409 -1.07961,-2.01728 -1.43369,-269.73679 -0.36203,-273.73566 0.36253,-1.3528 1.37646,-2.25 2.54271,-2.25 1.06685,0 11.25187,2.88766 22.63337,6.41701 29.99466,9.30123 136.12342,42.27604 167.98609,52.19425 l 27.29246,8.49559 40.20754,-12.52402 c 22.11415,-6.88821 65.62822,-20.41758 96.69794,-30.06527 l 56.49039,-17.54125 30.04749,-29.98815 C 636.05439,184.49467 650.00103,171 650.52081,171 652.11088,171 672,191.36114 672,192.98895 672,193.82753 659.625,206.8825 644.5,222 L 617,249.48636 v 124.56569 c 0,98.08521 -0.26573,124.92469 -1.25,126.25446 -1.10921,1.49857 -55.63985,18.82027 -185.25,58.84483 -14.3,4.41594 -27.125,8.76044 -28.5,9.65445 -3.25541,2.11662 -8.47388,2.12501 -11.83023,0.019 z M 664.73124,179.23211 C 659.37906,173.85977 655,168.66102 655,167.67934 c 0,-1.93883 11.0116,-12.69715 14.27917,-13.95073 3.19169,-1.22447 5.74928,0.13283 12.55539,6.66308 7.2649,6.97044 9.58121,10.72298 8.57527,13.8924 C 689.45369,177.29663 678.05158,189 676.07273,189 c -0.88564,0 -5.98931,-4.39555 -11.34149,-9.76789 z"
         id="path263" />
      <path
         style="fill:#162d5e"
         d="m 391,567.42092 c -1.375,-0.83923 -49.975,-16.26826 -108,-34.28675 L 177.5,500.37329 177.24643,363.49022 c -0.13947,-75.28569 0.0855,-137.22018 0.5,-137.63221 0.41446,-0.41202 49.12857,14.28717 108.25357,32.66487 59.125,18.3777 108.5565,33.4282 109.84778,33.44556 2.32837,0.0313 190.85936,-58.14554 193.84599,-59.81694 0.85587,-0.47897 14.83793,-13.8715 31.07125,-29.76118 16.23332,-15.88967 29.79593,-29.00493 30.13914,-29.14501 0.3432,-0.14009 5.10424,4.24241 10.58008,9.73887 l 9.95608,9.99358 -28.21626,28.28011 -28.21627,28.28012 L 614.7539,374.96112 614.5,500.38425 509,533.15228 c -58.025,18.02242 -106.69443,33.46096 -108.15429,34.30788 -3.33539,1.93497 -6.63266,1.92183 -9.84571,-0.0392 z m 0.5,-71.50425 c 0,-60.85361 -0.0183,-61.41382 -2,-61.10584 -11.21164,1.74247 -12.40141,1.58951 -18.08525,-2.3251 -3.01146,-2.07408 -8.80287,-7.30819 -12.8698,-11.63136 -5.76707,-6.13042 -8.53477,-10.18375 -12.57602,-18.41767 -2.84988,-5.80655 -5.43198,-10.30698 -5.73801,-10.00096 -0.30602,0.30603 -1.74982,3.38512 -3.20843,6.84244 -3.83379,9.08713 -9.86849,17.46612 -18.00478,24.99909 -11.37305,10.52969 -17.66852,12.61854 -24.51343,8.13358 -2.8948,-1.89675 -3.30321,-5.19315 -0.75428,-6.08796 18.25335,-6.40786 32.7192,-18.82602 39.3242,-33.75772 1.23278,-2.78692 2.99755,-5.02215 4.3801,-5.5478 2.08751,-0.79367 2.26606,-1.35472 1.81354,-5.69885 -0.7171,-6.88404 -1.86661,-7.68353 -11.92561,-8.29426 -9.00927,-0.54699 -11.39821,-1.83003 -10.03276,-5.38834 0.50238,-1.30917 2.09533,-1.63592 7.97549,-1.63592 8.19144,0 18.54412,1.63187 20.48143,3.22844 0.87073,0.71759 1.07238,2.50628 0.6454,5.72499 -1.31791,9.93492 5.04305,25.53382 13.97994,34.28277 8.15373,7.98226 26.34679,17.84559 30.19364,16.36942 C 391.7838,425.14573 392,415.60109 392,363.15383 c 0,-48.31515 -0.27447,-62.13346 -1.25,-62.93144 -0.6875,-0.56238 -30.5,-10.10865 -66.25,-21.21393 -35.75,-11.10528 -81.39439,-25.3012 -101.43199,-31.54648 -20.03759,-6.24529 -36.80009,-11.12756 -37.25,-10.84951 -1.18956,0.73519 -1.047,194.12797 0.14365,194.86383 2.10768,1.30262 8.03834,-14.58609 8.03834,-21.53536 0,-2.06543 0.66177,-4.24527 1.5,-4.94094 2.35335,-1.95311 1.82738,-2.86694 -3,-5.21226 -2.49037,-1.20992 -4.5,-2.88648 -4.5,-3.75418 0,-0.86235 2.05501,-3.9171 4.56669,-6.78832 2.51168,-2.87123 4.28115,-5.68243 3.93215,-6.24712 -0.349,-0.56468 -2.40401,-1.92942 -4.56669,-3.03273 C 189.76947,378.86207 188,377.23408 188,376.34763 c 0,-0.88645 3.18904,-6.07843 7.08675,-11.53773 6.14018,-8.60019 7.42734,-9.88486 9.63657,-9.61795 1.4024,0.16943 3.18526,1.27087 3.96192,2.44765 1.30975,1.98453 1.02806,2.59115 -3.88657,8.36965 -7.63847,8.98114 -7.49946,8.71854 -5.61373,10.60426 1.53472,1.53472 1.93394,1.34466 5.6665,-2.69768 3.66945,-3.97398 4.25818,-4.26385 6.83201,-3.36387 1.91681,0.67024 2.90778,1.7776 3.10213,3.46645 0.22582,1.96234 -1.50041,4.25551 -8.25,10.95951 -4.69457,4.66286 -8.53558,8.8138 -8.53558,9.22432 0,0.96699 5.47075,3.79776 7.33956,3.79776 0.79138,0 2.50122,-0.8659 3.79966,-1.92423 l 2.36078,-1.92423 -1.92236,-3.60341 c -2.67651,-5.01707 -1.11556,-6.37337 4.20886,-3.65705 4.98987,2.54564 8.2135,6.51806 8.2135,10.12133 0,3.48117 -2.10529,5.25025 -5.29525,4.44962 -2.97886,-0.74764 -4.78921,1.35157 -2.34515,2.71934 0.90222,0.5049 1.64291,1.45815 1.64598,2.11832 0.0144,3.09306 2.23001,8.70031 3.43783,8.70031 2.37869,0 7.42209,-6.80801 9.01366,-12.16741 1.8646,-6.27879 2.05738,-22.7679 0.32229,-27.56621 -1.01968,-2.81987 -0.97852,-3.52953 0.25,-4.3105 0.80885,-0.51418 2.14564,-0.65945 2.97064,-0.32283 0.825,0.33662 10.725,0.67752 22,0.75757 13.72256,0.0974 21.19449,0.53802 22.60067,1.33272 1.92571,1.08831 2.08648,1.98373 1.93042,10.7515 -0.0936,5.26038 -0.59,9.98407 -1.10304,10.49711 -0.57704,0.57704 -3.79216,0.53397 -8.43042,-0.11296 -9.06555,-1.26443 -29.47896,-0.77766 -30.99574,0.73912 -0.7822,0.7822 -0.65116,1.44808 0.46774,2.37668 1.13788,0.94436 6.84334,1.33279 21.29238,1.4496 12.26563,0.0992 20.47244,0.57756 21.67803,1.26369 1.77244,1.00874 1.94685,2.34409 2.01899,15.45802 0.0434,7.89465 0.4741,16.08644 0.95705,18.20398 0.96363,4.22516 -0.043,5.6062 -4.10706,5.63461 -2.90841,0.0203 -3.26171,-0.72321 -4.63923,-9.76355 -1.01441,-6.65731 -1.45161,-7.72114 -3.17315,-7.72114 -1.78249,0 -2.02796,0.7682 -2.28868,7.16245 -0.31977,7.84237 -1.93632,10.62432 -5.04178,8.67651 -1.22316,-0.76718 -1.79913,-3.01185 -2.16618,-8.44201 -0.47926,-7.09008 -0.60371,-7.39695 -3,-7.39695 -2.39629,0 -2.52074,0.30687 -3,7.39695 -0.38577,5.70708 -0.91318,7.64895 -2.30857,8.5 C 251.79044,439.16627 250,435.72041 250,428.36789 c 0,-3.43742 -0.45403,-6.53046 -1.00895,-6.87342 C 247.41854,420.5226 244,421.9697 244,423.60723 c 0,2.33937 -3.54958,8.66962 -6.53583,11.65588 -3.45146,3.45145 -7.36388,3.53361 -11.2818,0.23689 -1.6341,-1.375 -3.8841,-2.5 -5,-2.5 -3.04803,0 -7.88991,-4.58414 -9.27653,-8.78273 -0.67522,-2.0445 -1.26775,-7.42801 -1.31675,-11.96335 -0.049,-4.53535 -0.42659,-8.24785 -0.83909,-8.25 -0.4125,-0.002 -0.75,6.49179 -0.75,14.43098 C 209,434.04494 208.20352,438 205.05993,438 202.64295,438 201,435.19388 201,431.06574 201,429.37958 200.82,428 200.6,428 c -0.22,0 -2.01031,1.61031 -3.97847,3.57847 -3.04586,3.04586 -4.13982,3.53006 -7.35,3.25319 l -3.77153,-0.32529 -0.26489,29.11201 c -0.21631,23.77337 -0.0118,29.32204 1.11506,30.25727 0.75897,0.62989 42.05317,13.77428 91.76489,29.20974 49.71172,15.43546 95.10994,29.57438 100.88494,31.41981 5.775,1.84543 10.95,3.23671 11.5,3.09173 0.65295,-0.17212 1,-21.57822 1,-61.68026 z M 270.5,366.9558 c -8.1994,-1.669 -26.03102,-2.18819 -35.42991,-1.03159 -8.98237,1.10535 -9.52683,1.0635 -11.47222,-0.88189 L 221.55556,363 l 2.13234,-2.13235 c 1.97983,-1.97982 3.44683,-2.16837 20.50974,-2.63597 20.3564,-0.55787 34.75466,0.28174 37.34776,2.17786 2.25615,1.64973 1.17695,4.9403 -2.11167,6.4387 -2.79409,1.27307 -3.18471,1.27778 -8.93373,0.10756 z M 506,525.61709 606.5,494.35998 V 464.42999 434.5 l -6.60956,0.34197 c -5.20868,0.26949 -7.4792,-0.10169 -10.71264,-1.75126 -4.99447,-2.54799 -13.70443,-9.43275 -21.4184,-16.9301 -3.74015,-3.63512 -6.08134,-5.23867 -6.7184,-4.60161 -0.53778,0.53778 -1.10451,6.77134 -1.25939,13.85234 -0.24414,11.16137 -0.52227,13.02187 -2.09018,13.98161 C 554.1865,441.53837 553,437.84994 553,424.80887 553,418.31399 552.59592,413 552.10203,413 c -0.49388,0 -3.6138,2.59229 -6.93317,5.76064 -7.08332,6.76108 -20.37942,15.09276 -25.25068,15.82275 -6.31146,0.94581 -12.80084,-5.26622 -7.91818,-7.57977 0.825,-0.39091 4.65,-1.72426 8.5,-2.963 3.85,-1.23874 9.925,-3.96253 13.5,-6.05286 6.00589,-3.5117 18.07705,-13.19217 18.82104,-15.09354 0.56084,-1.43331 -4.13417,-1.99446 -9.79508,-1.17071 l -5.47404,0.79656 -0.74029,4.33652 c -0.40717,2.38508 -1.56907,5.75556 -2.58202,7.48996 -1.57141,2.69063 -2.41854,3.15345 -5.77197,3.15345 -5.01106,0 -5.5976,-2.13888 -1.91171,-6.97134 2.04804,-2.68511 2.80468,-5.02739 3.19506,-9.89073 l 0.51152,-6.37244 8.62374,0.46641 C 547.20477,395.18235 553,394.11545 553,392.13174 c 0,-1.83813 -3.32974,-2.08522 -15.1193,-1.12199 C 525.01605,392.06082 522,391.48921 522,388 c 0,-3.10757 3.05207,-3.94416 16.95662,-4.64789 7.21493,-0.36516 13.27334,-0.93127 13.46312,-1.25802 0.18979,-0.32675 0.64107,-1.97612 1.00284,-3.66527 0.56408,-2.63368 0.29593,-3.23605 -1.8824,-4.22856 C 549.79757,373.40628 549,372.25119 549,370.52144 549,368.39599 548.5367,368 546.0499,368 c -2.88934,0 -2.95627,0.11821 -3.25,5.74028 -0.40211,7.69667 -2.65293,8.28471 -6.53228,1.70661 -1.52219,-2.58113 -3.50404,-5.63612 -4.4041,-6.78885 -1.63583,-2.09505 -1.63808,-2.09443 -5.66153,1.54051 -7.02123,6.34326 -10.15302,6.96239 -16.01891,3.16683 -2.93696,-1.90038 -2.00646,-3.14541 5.52927,-7.39831 3.05236,-1.72265 7.73059,-5.17201 10.39607,-7.66525 5.27048,-4.92992 8.62013,-5.34075 7.5109,-0.92119 -0.52715,2.10033 -0.17888,2.43041 3.14393,2.97967 2.05521,0.33973 5.90383,0.62264 8.55249,0.62869 5.39708,0.0123 8.68426,1.35465 8.68426,3.54619 0,0.80565 0.60748,1.46482 1.34996,1.46482 1.72064,0 8.2756,-4.81094 12.08713,-8.87123 3.8867,-4.14036 5.78444,-4.09757 5.37688,0.12123 l -0.31397,3.25 14.55909,0.57299 c 8.0075,0.31515 15.095,0.90421 15.75,1.30902 0.655,0.40481 1.19091,1.63119 1.19091,2.72528 0,3.0426 -5.13283,4.79968 -10.8508,3.71446 -3.88208,-0.73679 -4.8142,-0.6086 -5.6492,0.77691 -0.55,0.91262 -2.97551,4.12326 -5.39002,7.13477 -5.07264,6.32685 -4.64461,7.22676 3.44889,7.25126 6.0284,0.0182 8.97569,1.75569 8.03043,4.73396 -1.1038,3.47776 -5.63735,4.67793 -12.82588,3.3954 -3.44488,-0.61461 -9.17276,-1.2292 -12.72861,-1.36576 -5.27739,-0.20267 -6.52623,0.0485 -6.79743,1.36723 -0.41902,2.03754 3.44652,2.88448 13.16511,2.88448 8.63361,0 12.11762,1.79158 11.13071,5.72373 -0.34484,1.37397 -0.0734,4.97159 0.6031,7.99471 1.18074,5.2761 1.13729,5.56659 -1.08303,7.24138 l -2.3131,1.74478 2.37991,1.66948 C 588.256,421.57388 602.37832,427 604.96774,427 606.99452,427 607,426.77484 607,343.55902 c 0,-45.89254 -0.34567,-83.65462 -0.76815,-83.91573 -0.42248,-0.2611 -4.23186,2.78205 -8.4653,6.76256 -7.67823,7.21949 -7.73,7.24757 -21.04608,11.41572 -7.3419,2.29814 -13.88252,4.17843 -14.53469,4.17843 -1.84203,0 -1.50327,-1.63669 3.30747,-15.97988 2.99451,-8.92812 5.38846,-14.33099 7.1771,-16.19793 1.47611,-1.54073 2.42501,-3.06016 2.10866,-3.37651 -0.68984,-0.68984 -171.73345,52.32255 -173.52901,53.78271 -1.59922,1.30048 -1.84899,126.28338 -0.25434,127.26893 2.39716,1.48152 17.64243,-11.21552 21.00066,-17.49045 1.13341,-2.1178 0.66856,-2.8149 -6.47141,-9.70468 -4.84858,-4.67869 -7.4883,-7.95521 -7.14011,-8.86259 0.84376,-2.1988 1.85505,-1.83595 9.92327,3.5604 4.11159,2.75 7.95694,5 8.54523,5 1.56024,0 3.17003,-6.91483 3.42483,-14.71134 L 430.5,378.5 l -3.92401,-0.32074 c -2.15821,-0.17641 -7.61096,0.1699 -12.11721,0.76957 -8.73096,1.16188 -10.93975,0.84613 -11.91821,-1.70369 -1.12283,-2.92606 2.20658,-4.7073 10.73856,-5.74514 l 8.22087,-1 0.29373,-6.66384 c 0.32321,-7.33295 2.0128,-10.07361 5.04009,-8.17548 1.19799,0.75114 1.80668,2.9826 2.16618,7.94126 l 0.5,6.89657 9.5,1.15417 c 5.225,0.6348 9.6125,1.19764 9.75,1.25075 0.1375,0.0531 0.25,1.19501 0.25,2.53755 0,3.10551 -1.31288,3.90045 -7.5,4.54121 l -5,0.51781 -0.6484,9.5 c -0.35662,5.225 -1.14412,10.76679 -1.75,12.3151 -1.38885,3.54916 -1.59212,2.79265 1.94693,7.24596 3.48667,4.38741 3.78798,9.92185 0.64447,11.83766 -1.49777,0.91282 -2.30823,0.54511 -4.73591,-2.14872 -1.61089,-1.7875 -3.27274,-3.2492 -3.69299,-3.24821 -0.42026,9.8e-4 -2.00739,1.96982 -3.52696,4.37519 -3.29795,5.22039 -11.67512,13.26874 -15.20954,14.61253 -1.62851,0.61915 -3.44672,0.61154 -5.11152,-0.0214 -1.42115,-0.54033 -2.99615,-0.72763 -3.5,-0.41624 -1.03659,0.64065 -1.30057,121.73032 -0.26762,122.76326 0.87565,0.87566 -7.01723,3.25045 105.35154,-31.69803 z m -49.60835,-88.03884 c -0.88863,-2.31575 0.0382,-2.98057 7.60835,-5.45754 9.44742,-3.09121 12.77654,-5.39199 13.48993,-9.32301 0.32916,-1.81374 0.46607,-11.1727 0.30427,-20.7977 l -0.2942,-17.5 -6.27603,-0.29839 c -3.45181,-0.16412 -9.50928,0.14966 -13.46104,0.69729 C 449.8551,385.99476 448,385.34598 448,381.48454 c 0,-3.08524 1.60166,-3.51754 15.492,-4.18138 6.6044,-0.31563 12.5705,-1.01807 13.258,-1.56097 0.83886,-0.66241 1.25,-4.03121 1.25,-10.24219 0,-7.22451 0.3475,-9.54351 1.58382,-10.56957 1.14658,-0.95157 2.04381,-1.02545 3.25,-0.2676 1.32165,0.83038 1.76957,3.19634 2.16618,11.44201 l 0.5,10.39516 6.28263,0.69297 c 8.41359,0.92801 10.21737,1.59939 10.21737,3.80299 0,3.99636 -2.84232,5.278 -10.11567,4.5613 l -6.75038,-0.66516 -0.31697,23.40261 c -0.24985,18.44669 -0.61921,23.76627 -1.74415,25.11989 -2.75019,3.30924 -7.29339,4.75885 -16.66746,5.31812 -8.22538,0.49073 -9.43595,0.35116 -10.01372,-1.15447 z m -6.95569,-25.05138 c -3.97027,-3.97027 -2.92431,-6.10709 5.18679,-10.59628 5.81504,-3.21841 7.32761,-3.69533 8.23857,-2.59769 0.85969,1.03587 0.10598,2.79557 -3.28355,7.66612 -5.67777,8.15861 -6.86431,8.80535 -10.14181,5.52785 z m -218.47677,15.85401 c 4.6657,-3.92592 6.04684,-7.4008 5.99425,-15.08122 l -0.0466,-6.79966 -2.5625,5 c -3.27673,6.39361 -7.1347,10.5 -9.8648,10.5 -3.30374,0 -3.55911,0.92378 -1.41641,5.12382 2.32963,4.56645 3.70316,4.78512 7.89602,1.25706 z M 578.10118,408 577.5,402.5 l -6.83842,-0.82306 c -3.76114,-0.45268 -7.5832,-0.53726 -8.49348,-0.18795 -1.42371,0.54633 -1.30651,0.91515 0.83843,2.6386 8.6024,6.91203 14.40909,10.84361 15.00649,10.16057 0.37913,-0.43349 0.41881,-3.26316 0.0882,-6.28816 z m -328.29081,1.75 c 0.28452,-3.43772 0.0971,-3.75 -2.25,-3.75 -2.32772,0 -2.56037,0.36978 -2.56037,4.06955 0,3.64829 0.23291,4.03647 2.25,3.75 1.80733,-0.25668 2.31106,-1.05733 2.56037,-4.06955 z M 262.5,409.5 c 0,-3.59412 -0.25228,-4 -2.4863,-4 -2.74545,0 -3.59725,2.03883 -2.56691,6.14401 0.46643,1.85843 1.18286,2.40635 2.83856,2.17091 C 262.14996,413.54978 262.5,412.86777 262.5,409.5 Z M 275,410 c 0,-3.6 -0.25,-4 -2.5,-4 -2.16667,0 -2.5,0.44444 -2.5,3.33333 0,3.80706 0.58331,4.66667 3.16667,4.66667 1.47222,0 1.83333,-0.78788 1.83333,-4 z m -4.17774,-26.34982 C 271.42398,378.4759 270.07545,378 254.81181,378 c -7.69912,0 -14.8095,0.46358 -15.87755,1.03518 -1.72247,0.92184 -2.77158,5.79408 -1.51764,7.04815 0.22915,0.22917 7.76665,0.39896 16.75,0.37732 l 16.33338,-0.0394 0.32226,-2.77111 z M 574.78321,377.75 c 0.6809,-2.8875 1.5107,-6.2625 1.84402,-7.5 0.56141,-2.08432 0.2845,-2.24849 -3.7606,-2.22943 -3.72037,0.0175 -5.0546,0.64651 -9.0151,4.25 -4.37378,3.97951 -4.59368,4.42148 -3.7214,7.47943 0.91869,3.22069 0.98337,3.25 7.17108,3.25 h 6.24402 z m 6.78865,-108.39172 C 588.17452,267.15872 589,266.36234 589,262.19201 589,257.52659 585.76299,254 581.48067,254 c -3.93302,0 -5.73208,1.98978 -7.94491,8.78719 -2.75002,8.44753 -1.25825,9.66734 8.0361,6.57109 z m 83.43599,-91.90342 -9.36059,-9.54515 6.39748,-6.45485 c 8.70957,-8.78768 10.0359,-8.72906 19.63268,0.86772 9.20757,9.20757 9.31813,10.40799 1.71487,18.62042 -3.08425,3.33135 -6.37635,6.057 -7.31578,6.057 -0.93944,0 -5.92034,-4.29531 -11.06866,-9.54514 z"
         id="path261" />
    </g>
  </g>
</svg>
